<?xml version="1.0" standalone="no"?>
<!DOCTYPE svg PUBLIC "-//W3C//DTD SVG 20010904//EN"
 "http://www.w3.org/TR/2001/REC-SVG-20010904/DTD/svg10.dtd">
<svg version="1.0" xmlns="http://www.w3.org/2000/svg"
 width="5000.000000pt" height="3333.000000pt" viewBox="0 0 5000.000000 3333.000000"
 preserveAspectRatio="xMidYMid meet">

<g transform="translate(0.000000,3333.000000) scale(0.100000,-0.100000)"
fill="#000000" stroke="none">
<path d="M2 27348 c1 -3291 3 -5964 5 -5940 2 23 7 42 11 43 4 0 16 3 27 6 11
2 28 5 38 6 9 1 17 5 17 9 0 4 11 8 25 8 14 0 25 5 25 10 0 6 7 10 16 10 9 0
34 5 55 12 37 10 39 14 39 50 0 46 19 50 56 13 19 -19 29 -23 38 -16 7 6 16 8
19 4 4 -3 7 -1 7 4 0 6 11 10 25 8 14 -1 25 2 25 8 0 6 3 8 6 4 3 -3 26 3 51
14 25 10 49 17 54 13 5 -3 9 0 9 5 0 6 14 11 31 11 20 0 28 4 23 12 -4 7 -3 8
4 4 6 -4 25 0 41 9 17 8 41 15 55 15 14 0 27 4 30 9 3 5 16 7 28 3 13 -3 19
-1 15 5 -6 9 92 47 148 58 11 2 22 4 25 5 3 1 8 2 12 1 5 0 8 3 8 7 0 4 8 8
18 9 42 5 82 16 82 24 0 5 7 6 15 3 8 -4 15 -2 15 4 0 6 11 9 25 8 13 -2 22 0
20 5 -3 4 -1 10 4 13 5 4 12 2 16 -4 4 -6 12 -5 21 5 9 8 20 13 25 10 5 -4 9
-2 9 4 0 5 8 8 18 6 9 -1 22 1 27 5 6 4 33 15 62 25 29 10 50 22 48 25 -3 4 7
6 21 4 14 -1 39 2 57 7 18 6 39 12 47 14 8 2 32 11 53 20 21 8 42 13 47 10 6
-4 10 -2 10 3 0 9 75 34 109 37 9 1 27 7 41 15 14 7 26 13 28 12 10 -7 22 0
16 11 -5 7 0 6 11 -3 15 -12 17 -12 10 -1 -6 11 -4 13 8 8 9 -3 19 -2 22 3 4
6 17 10 31 10 13 0 24 4 24 8 0 5 14 9 31 10 17 0 36 5 43 11 7 6 16 8 20 4 4
-4 11 -2 15 5 4 7 18 14 29 15 12 1 22 5 22 10 0 5 7 7 15 3 8 -3 15 -1 15 5
0 6 4 8 8 5 5 -3 21 2 37 10 15 8 30 12 33 9 3 -3 11 0 19 6 7 6 13 9 13 5 0
-4 13 0 30 9 16 9 30 11 30 6 0 -5 9 -7 20 -4 11 3 20 10 20 15 0 5 4 7 9 3 5
-3 12 -1 16 4 3 6 12 8 19 5 7 -3 21 2 29 11 11 10 25 13 42 9 16 -4 25 -2 25
6 0 6 4 9 9 6 10 -7 61 16 61 27 0 5 6 5 13 0 19 -12 37 -12 37 -1 0 6 -7 7
-16 4 -9 -3 -12 -2 -9 5 4 5 15 7 26 4 11 -4 19 -2 19 5 0 7 7 9 15 6 9 -3 18
0 21 8 7 19 62 18 75 -2 9 -15 10 -15 5 0 -7 22 4 30 22 15 13 -9 14 -9 8 1
-5 8 0 12 14 12 14 0 19 4 14 13 -6 9 -4 9 8 -1 12 -9 18 -10 23 -2 5 8 11 5
21 -7 12 -16 13 -15 8 12 -5 28 -4 29 9 11 15 -21 34 -7 22 17 -4 6 0 4 8 -6
14 -17 15 -16 20 2 5 19 31 22 55 7 15 -9 72 23 72 41 0 11 3 14 8 7 4 -6 20
-14 36 -18 24 -6 27 -5 18 6 -7 9 -8 19 -2 28 8 13 10 12 10 -2 0 -11 5 -15
15 -12 8 4 15 10 15 16 0 5 -5 6 -12 2 -6 -4 -8 -3 -5 3 3 5 20 8 36 5 20 -3
28 -8 24 -16 -4 -6 1 -5 10 3 14 11 17 11 17 0 1 -9 4 -8 11 4 7 12 17 16 30
12 13 -4 19 -2 17 6 -2 7 2 13 7 14 6 0 15 4 22 8 28 18 217 78 230 72 21 -7
195 53 213 74 20 24 221 94 233 82 6 -6 46 4 105 25 53 19 97 34 99 34 2 0 3
6 3 13 0 17 185 82 235 82 35 0 40 3 43 25 5 38 18 44 40 22 20 -20 22 -20 71
-5 28 9 52 23 53 31 4 19 220 94 229 80 10 -15 201 51 206 71 5 21 223 97 232
82 5 -7 26 -5 67 9 120 41 144 52 144 65 0 7 43 28 101 49 104 37 129 42 129
27 0 -5 41 6 91 25 51 19 97 34 104 34 7 0 15 9 18 20 4 17 11 20 32 14 18 -4
32 -1 45 11 10 9 24 14 29 10 16 -9 13 -43 -4 -52 -12 -7 -4 -23 46 -82 48
-57 59 -75 48 -82 -8 -5 -11 -9 -6 -10 4 -1 12 -3 17 -4 6 -1 13 -3 16 -4 4 0
1 -8 -6 -16 -11 -13 -7 -19 11 -17 12 2 -4 -40 -17 -45 -7 -2 -11 -10 -9 -16
5 -14 -62 -50 -76 -42 -5 4 -9 0 -9 -7 0 -9 -3 -9 -10 2 -8 12 -12 13 -19 2
-6 -11 -10 -10 -16 5 -5 10 -7 22 -6 26 1 5 -3 6 -9 2 -6 -3 -8 -10 -5 -15 3
-5 1 -11 -5 -15 -5 -3 -11 0 -11 7 -2 17 -17 -79 -18 -114 -1 -20 4 -28 15
-28 15 0 16 -9 10 -61 -3 -34 -6 -88 -6 -120 0 -46 -3 -59 -15 -59 -12 0 -15
-19 -15 -110 0 -67 4 -110 10 -110 6 0 10 -47 10 -120 0 -100 -2 -120 -15
-120 -12 0 -15 -15 -16 -67 -1 -38 -3 -89 -5 -115 -4 -40 -1 -48 12 -48 15 0
16 -10 11 -82 -4 -46 -7 -100 -7 -120 0 -26 -5 -38 -14 -38 -11 0 -14 -24 -15
-110 -1 -71 2 -110 9 -110 6 0 10 -45 10 -126 0 -108 -2 -125 -15 -120 -13 4
-15 -10 -15 -93 0 -55 -3 -106 -6 -115 -4 -11 0 -16 11 -16 17 0 17 -9 11
-117 -4 -65 -12 -120 -17 -124 -6 -3 -12 -45 -15 -93 -4 -81 -3 -86 15 -86 11
0 31 11 45 25 15 15 31 22 40 19 9 -3 14 -9 11 -14 -2 -4 5 -16 15 -28 11 -12
20 -28 20 -37 0 -9 4 -14 9 -10 10 5 7 -27 -2 -43 -14 -22 97 -106 153 -115
14 -2 32 -7 40 -10 44 -17 426 -48 906 -73 l121 -7 7 27 c3 14 12 26 19 26 18
0 37 -21 37 -41 0 -17 25 -20 320 -35 169 -8 227 -22 103 -23 -51 -1 -93 -5
-93 -10 0 -6 -19 -8 -42 -6 -24 2 -147 7 -275 10 l-232 7 5 -23 c2 -13 2 -19
-1 -12 -4 7 -17 8 -38 3 -67 -17 -103 -21 -87 -9 12 9 11 9 -5 2 -11 -4 -193
-7 -405 -5 -310 2 -394 0 -430 -11 -67 -22 -197 -49 -235 -50 -30 -1 -34 -4
-37 -34 -3 -22 0 -33 9 -33 9 0 13 -17 13 -59 0 -97 -12 -181 -25 -181 -19 0
-24 -44 -7 -60 11 -10 12 -15 4 -18 -17 -5 -16 -138 1 -145 18 -7 11 -247 -7
-247 -9 0 -16 -27 -22 -87 -11 -103 -8 -133 12 -133 11 0 14 -16 14 -74 0
-104 -10 -166 -26 -166 -19 0 -20 -216 -2 -222 15 -5 12 -239 -3 -249 -14 -8
-18 -69 -5 -76 6 -3 8 -3 4 2 -7 8 19 34 35 35 8 0 9 -52 1 -74 -9 -25 -44
-20 -44 6 0 44 -12 8 -16 -51 -4 -50 -2 -61 11 -61 12 0 15 -16 15 -97 0 -107
-6 -143 -24 -143 -19 0 -22 -208 -3 -223 20 -16 12 -247 -9 -247 -9 0 -14 -27
-16 -110 -2 -83 0 -110 10 -110 9 0 12 -30 12 -116 0 -103 -2 -116 -18 -121
-15 -4 -18 -19 -21 -113 -2 -89 0 -110 13 -117 13 -7 15 -26 9 -126 -5 -88 -9
-117 -20 -117 -10 0 -13 -24 -13 -110 0 -67 4 -110 10 -110 6 0 10 -5 10 -10
0 -6 32 -52 71 -102 l70 -91 -20 -21 c-21 -20 -21 -20 -36 -1 -8 11 -15 15
-15 10 0 -6 -9 -11 -20 -12 -11 -1 -18 2 -15 7 3 5 -5 12 -17 16 -22 8 -22 8
5 13 l29 6 -51 67 -51 68 -50 -20 c-107 -42 -120 -49 -115 -62 6 -17 -201
-101 -230 -93 -27 8 -200 -66 -200 -86 0 -19 -217 -110 -227 -95 -9 14 -203
-66 -203 -85 0 -19 -217 -112 -227 -96 -5 8 -24 4 -65 -13 -125 -51 -142 -61
-137 -74 3 -7 -2 -16 -11 -20 -9 -3 -15 -11 -14 -18 3 -26 -2 -35 -24 -45 -20
-9 -23 -8 -24 9 -1 11 -4 22 -6 24 -2 3 -35 -9 -72 -26 -51 -23 -70 -28 -76
-18 -10 16 -210 -68 -203 -86 4 -11 -47 -35 -218 -104 -4 -2 -8 3 -8 11 0 11
-26 3 -104 -31 -60 -26 -102 -50 -100 -56 6 -15 -218 -109 -226 -95 -9 14
-192 -62 -197 -82 -3 -9 -47 -33 -101 -56 -83 -35 -97 -45 -100 -66 -6 -46
-56 -43 -64 4 -3 19 -4 19 -43 1 -22 -11 -59 -27 -82 -37 -24 -10 -43 -24 -43
-30 0 -7 -47 -32 -105 -55 -58 -24 -105 -48 -105 -54 0 -5 -7 -1 -16 10 -14
17 -15 17 -10 1 3 -10 2 -16 -3 -12 -15 8 -41 -6 -41 -22 0 -12 -3 -13 -14 -4
-11 9 -20 6 -42 -14 -18 -17 -34 -23 -47 -19 -12 4 -17 2 -13 -4 6 -11 -21
-26 -41 -23 -7 1 -10 -4 -7 -13 7 -17 -25 -30 -51 -20 -12 5 -23 0 -36 -17
-16 -20 -20 -22 -29 -9 -9 13 -14 8 -11 -12 0 -4 -11 -5 -25 -2 -14 3 -23 1
-20 -5 3 -5 -1 -14 -9 -21 -12 -10 -15 -10 -15 1 0 11 -2 11 -9 0 -5 -8 -18
-16 -28 -17 -9 -2 -19 -7 -21 -13 -2 -5 -9 -8 -17 -5 -7 3 -19 -3 -26 -14 -18
-25 -76 -45 -83 -29 -2 7 -5 4 -5 -6 -1 -10 -5 -15 -11 -12 -5 3 -10 2 -10 -2
0 -5 -10 -9 -22 -10 -11 -1 -25 -8 -29 -15 -7 -11 -9 -11 -9 0 0 9 -15 2 -39
-17 -21 -17 -41 -28 -43 -25 -3 3 -22 -6 -42 -20 -21 -14 -44 -22 -52 -19 -8
3 -14 0 -14 -7 0 -6 -4 -8 -10 -5 -5 3 -10 2 -10 -4 0 -6 -10 -15 -21 -22 -17
-9 -20 -8 -13 3 9 15 -25 -9 -38 -27 -5 -6 -8 -4 -8 4 0 11 -4 11 -18 -2 -10
-10 -24 -17 -30 -17 -7 0 -12 -4 -12 -10 0 -5 -7 -7 -15 -4 -8 4 -15 1 -15 -5
0 -6 -6 -11 -14 -11 -7 0 -19 -7 -27 -16 -7 -8 -21 -13 -30 -11 -10 3 -19 2
-21 -2 -5 -10 -88 -51 -104 -51 -8 0 -14 -5 -14 -11 0 -6 -7 -9 -15 -5 -8 3
-15 1 -15 -4 0 -6 -8 -10 -18 -10 -10 0 -23 -5 -30 -12 -7 -7 -12 -8 -12 -3 0
5 -6 1 -13 -9 -7 -9 -22 -18 -35 -19 -12 0 -22 -6 -22 -11 0 -5 -3 -6 -7 -3
-3 4 -15 0 -25 -10 -10 -9 -18 -13 -18 -9 0 3 -15 -1 -32 -11 -18 -9 -37 -16
-41 -15 -5 1 -29 -11 -53 -28 -25 -17 -42 -25 -38 -18 4 7 -2 5 -13 -4 -11
-10 -27 -18 -36 -18 -9 0 -17 -6 -17 -12 0 -9 -4 -8 -10 2 -7 12 -10 12 -10 1
0 -8 -6 -11 -16 -7 -8 3 -12 2 -9 -4 6 -9 -8 -14 -28 -11 -4 1 -10 -6 -13 -14
-5 -12 -9 -13 -21 -4 -11 10 -13 9 -11 -2 2 -8 -7 -15 -22 -17 -14 -2 -33 -11
-42 -19 -10 -9 -18 -13 -18 -9 0 4 -10 0 -22 -8 -12 -9 -32 -16 -43 -16 -11 0
-31 -9 -45 -20 -14 -11 -31 -20 -38 -20 -7 0 -20 -7 -28 -15 -9 -8 -23 -15
-33 -15 -10 0 -26 -9 -36 -20 -10 -11 -24 -20 -32 -20 -7 0 -13 -5 -13 -12 0
-6 -3 -8 -6 -5 -8 8 -74 -65 -68 -75 3 -5 1 -8 -5 -8 -5 0 -12 21 -14 48 -2
26 -3 -45 -3 -158 0 -131 2 -178 6 -130 4 41 7 69 8 63 4 -24 6 -28 19 -41 7
-8 11 -17 8 -22 -3 -4 2 -13 10 -20 8 -7 15 -23 15 -37 0 -13 4 -22 9 -19 4 3
13 -13 20 -34 6 -22 16 -40 22 -40 6 0 8 -4 5 -9 -3 -5 0 -11 7 -14 6 -2 18
-25 25 -50 8 -25 24 -54 38 -63 17 -13 20 -20 11 -26 -9 -6 -9 -8 1 -8 6 0 12
-5 12 -12 0 -6 8 -20 18 -31 12 -15 13 -19 2 -13 -8 4 -7 1 4 -8 12 -10 16
-21 12 -33 -4 -9 -4 -14 0 -10 7 7 23 -19 74 -123 18 -36 37 -68 43 -71 5 -4
6 -12 2 -19 -5 -8 -4 -11 3 -6 6 3 15 -8 22 -29 6 -19 16 -35 21 -35 5 0 9 -6
9 -14 0 -8 8 -22 18 -32 9 -10 16 -20 16 -23 -2 -11 21 -56 38 -75 10 -11 18
-17 18 -13 0 4 9 -2 20 -13 11 -11 26 -20 34 -20 8 0 16 -4 18 -9 1 -6 17 -12
35 -16 18 -3 42 -9 55 -13 33 -11 53 -9 72 7 12 10 16 10 16 1 0 -8 6 -9 18
-5 9 4 24 8 32 8 8 0 21 6 28 14 7 7 25 16 40 19 15 4 36 14 46 23 16 13 18
13 11 1 -6 -12 -5 -13 6 -3 7 7 21 13 30 13 10 0 24 6 31 13 13 13 100 54 105
50 2 -2 23 9 48 22 25 14 45 22 45 18 0 -4 5 0 11 10 6 9 14 15 19 12 5 -3 29
6 53 19 24 14 47 22 51 19 3 -4 6 -1 6 5 0 7 6 12 13 12 6 0 33 11 60 25 26
14 47 22 47 19 0 -4 8 0 18 8 18 16 148 79 168 82 6 1 18 7 26 14 8 6 18 9 21
5 4 -3 7 -1 7 6 0 7 5 9 10 6 6 -3 10 -1 10 5 0 6 5 8 10 5 6 -3 10 -2 10 3 0
11 49 34 60 27 4 -3 13 2 20 10 7 8 19 15 26 15 8 0 14 5 14 11 0 5 4 8 9 4 5
-3 16 2 25 10 8 9 18 15 21 15 9 -2 100 43 106 53 3 5 9 8 13 8 3 -1 7 -1 9 0
1 0 11 2 21 4 10 2 22 8 25 14 4 6 16 12 28 14 12 1 27 8 35 14 7 6 25 14 41
18 15 4 27 11 27 16 0 5 6 9 14 9 7 0 34 11 59 24 25 14 48 22 51 19 3 -4 6
-1 6 6 0 7 5 9 10 6 6 -3 10 -1 10 4 0 6 5 11 12 11 6 0 59 23 117 52 58 29
109 53 114 54 4 1 11 2 15 3 5 0 14 13 21 27 10 22 16 25 41 21 16 -4 32 -2
36 4 3 6 12 8 19 5 7 -2 16 2 19 10 3 8 9 13 13 12 4 -1 33 9 63 24 66 32 193
91 200 92 3 1 46 21 95 45 50 24 107 49 128 57 22 7 55 22 75 33 59 31 127 61
139 61 6 0 16 6 22 13 6 8 30 20 53 27 24 8 45 17 48 20 8 8 71 40 79 40 5 0
44 17 87 37 43 20 82 36 87 35 4 -1 7 2 7 7 0 9 48 26 63 23 4 -1 7 3 7 8 0 5
3 9 8 8 4 -1 41 15 82 34 41 20 104 48 140 63 36 14 106 45 155 67 50 22 99
43 110 48 11 5 43 19 70 31 28 11 82 36 122 55 40 19 79 34 88 34 8 0 15 5 15
12 0 6 3 8 6 5 4 -3 16 -1 28 5 11 7 24 11 29 10 4 -1 7 3 7 8 0 6 9 10 19 10
11 0 23 5 26 10 3 6 13 10 21 10 12 0 52 17 179 75 17 7 46 20 65 29 19 8 61
26 93 40 32 14 61 26 66 26 4 0 35 14 69 30 34 17 67 30 72 30 6 0 32 11 58
24 26 13 101 45 167 71 66 26 145 59 175 72 103 46 115 51 210 88 52 20 113
45 135 55 22 10 83 37 136 60 53 23 111 55 128 71 18 16 34 29 37 29 3 0 18
15 34 34 44 49 112 79 191 82 91 3 154 12 219 30 42 12 350 130 505 193 109
45 162 66 170 67 6 1 66 25 135 54 69 28 132 53 140 55 8 2 37 13 63 24 27 12
53 21 58 21 4 0 32 11 61 24 29 13 73 29 97 36 24 6 51 15 60 20 27 14 212 86
281 110 36 12 83 30 105 39 22 10 83 33 135 51 52 18 114 41 137 51 22 10 44
15 47 12 3 -4 6 -1 6 5 0 6 15 14 33 18 17 4 34 8 37 9 3 1 16 6 30 12 28 13
59 24 78 30 6 1 18 5 25 6 6 2 19 7 27 10 8 3 33 11 55 18 22 6 45 15 50 20 6
4 22 9 35 12 14 2 36 8 50 14 14 6 129 55 255 109 127 53 235 103 240 110 6 7
15 21 21 31 10 15 15 16 33 6 18 -11 88 16 603 238 321 139 595 256 609 262
l26 10 -21 61 c-11 34 -24 63 -28 64 -4 2 -8 10 -8 17 0 23 -76 110 -243 278
-151 152 -207 211 -376 394 -127 137 -287 318 -398 449 -49 59 -168 201 -191
229 -20 25 -167 202 -193 233 -10 12 -16 22 -12 22 4 0 0 6 -9 13 -8 6 -37 41
-63 77 -27 36 -52 67 -55 70 -8 7 -174 224 -225 296 -22 30 -45 61 -51 67 -6
7 -39 55 -75 107 -35 52 -66 97 -69 100 -10 10 -50 69 -50 75 0 3 -10 19 -22
35 -16 22 -24 27 -30 18 -6 -10 -13 -7 -28 11 -23 26 -25 43 -9 73 8 15 8 19
0 14 -6 -4 -11 0 -11 11 0 10 -50 79 -111 153 -130 159 -169 201 -180 194 -4
-2 -36 8 -71 24 -35 16 -93 42 -131 58 -37 16 -84 44 -105 61 -26 23 -47 33
-70 33 -18 0 -31 4 -28 9 6 8 -48 25 -71 22 -6 -1 -14 2 -17 7 -2 4 12 9 32
10 20 2 41 7 46 12 6 6 15 10 20 10 6 0 4 -5 -4 -11 -13 -9 -13 -10 0 -6 8 2
14 9 13 14 -11 52 -11 63 1 63 8 0 12 10 11 25 -2 14 1 25 6 25 6 0 7 5 4 10
-3 6 1 10 10 10 9 0 13 5 10 10 -3 6 1 13 10 16 10 4 13 9 6 13 -20 13 12 56
41 56 15 -1 24 4 21 9 -4 5 3 7 15 4 15 -4 22 -2 22 7 0 8 9 17 20 20 11 3 20
13 20 22 0 13 2 14 17 2 11 -10 14 -10 9 -1 -4 6 -3 12 3 12 5 0 17 7 25 16
12 12 16 12 16 2 0 -10 2 -10 9 1 7 10 13 11 30 2 19 -10 21 -9 21 13 0 13 7
32 16 40 17 17 28 21 20 7 -3 -5 1 -22 9 -37 8 -16 15 -34 15 -41 0 -7 7 -10
17 -6 11 4 14 3 9 -5 -7 -12 32 -34 47 -25 4 2 8 -1 8 -6 1 -6 2 -17 3 -23 1
-7 9 -12 19 -10 9 2 17 -2 17 -8 0 -14 23 -13 38 2 9 9 7 14 -5 23 -25 18 -9
48 22 42 22 -4 30 3 58 49 17 29 38 54 45 54 6 0 12 5 12 11 0 5 -4 8 -10 4
-18 -11 14 60 42 93 15 18 28 37 28 42 0 5 6 15 13 22 6 8 25 39 41 69 15 30
116 209 223 398 108 189 199 360 204 379 4 20 17 43 28 52 16 12 107 169 134
230 4 8 18 33 31 55 13 22 38 67 55 100 16 33 46 86 65 118 19 31 32 57 30 57
-3 0 4 13 15 29 12 16 21 32 21 35 0 2 17 33 37 68 20 35 36 72 35 83 0 11 12
33 28 50 15 16 38 48 50 70 128 229 169 303 201 357 16 27 29 51 29 53 0 2 25
46 55 99 30 52 55 98 55 102 0 4 15 30 34 58 53 81 243 428 249 457 4 14 17
37 29 50 23 25 78 105 78 113 0 3 41 73 90 157 50 83 90 153 90 155 0 2 25 45
56 96 31 51 66 109 77 128 88 157 592 1014 631 1075 18 28 46 72 62 99 16 28
38 64 49 82 100 162 307 497 334 542 19 31 41 63 48 70 7 7 15 25 19 40 17 86
29 115 46 120 10 2 18 10 18 17 0 6 16 28 35 48 28 29 188 296 536 897 l37 65
-61 7 c-34 4 -251 23 -482 43 -528 44 -429 36 -1190 101 -357 31 -713 58 -790
60 -141 3 -365 11 -530 19 -49 2 -148 7 -220 10 -71 3 -148 8 -170 10 -22 2
-110 6 -195 9 -85 3 -189 8 -230 11 -41 3 -111 7 -155 10 -103 6 -228 15 -285
20 -25 2 -99 7 -165 10 -66 4 -127 8 -135 10 -8 2 -73 7 -145 11 -71 3 -141 8
-155 10 -102 13 -305 15 -400 4 l-109 -13 -3 -31 c-2 -23 -8 -31 -23 -31 -14
0 -22 10 -28 36 -9 38 -12 40 -102 56 -16 3 -37 9 -45 13 -21 11 -106 24 -215
34 -167 15 -418 36 -485 40 -71 5 -487 38 -650 52 -41 3 -84 8 -95 9 -11 2
-63 6 -115 10 -52 4 -103 9 -112 10 -10 2 -57 6 -105 10 -48 4 -101 8 -116 10
-39 5 -151 15 -217 20 -30 2 -73 6 -95 9 -22 2 -76 8 -120 12 -44 4 -89 8
-100 9 -11 1 -60 6 -110 10 -49 4 -97 9 -105 10 -8 1 -26 -3 -39 -9 -18 -8
-26 -7 -35 4 -6 8 -20 16 -31 17 -11 1 -56 5 -100 8 -44 4 -97 8 -118 11 -21
2 -59 6 -85 9 -26 2 -63 7 -83 10 -28 5 -38 3 -42 -9 -9 -22 -34 -20 -46 2 -8
16 -32 21 -138 31 -70 7 -141 14 -158 16 -16 2 -61 7 -100 10 -38 4 -84 10
-100 14 -17 5 -39 5 -50 1 -11 -4 -27 -4 -36 1 -18 9 -69 17 -159 25 -95 8
-123 11 -195 19 -92 10 -89 10 -100 16 -5 3 -38 5 -72 5 -33 -1 -59 3 -56 7 2
4 -10 7 -29 6 -52 -1 -198 13 -194 20 2 3 -17 6 -42 6 -26 0 -51 3 -57 6 -5 3
-25 7 -42 8 -51 2 -63 4 -63 10 0 3 -17 7 -37 8 -21 0 -54 4 -73 6 -19 3 -60
8 -90 12 -30 3 -62 8 -70 11 -8 3 -28 8 -45 11 -16 3 -32 8 -35 11 -3 4 -20 8
-39 9 -24 1 -39 -6 -55 -23 -29 -34 -67 -39 -99 -14 -14 11 -28 28 -31 38 -5
15 -34 20 -213 35 -263 22 -245 23 -237 -9 5 -20 4 -25 -5 -19 -9 5 -12 -8 -9
-52 3 -53 1 -58 -19 -61 -19 -3 -22 3 -28 62 -5 46 -12 66 -21 66 -7 0 -20 11
-29 23 -14 22 -26 25 -158 36 -214 18 -789 74 -852 83 -11 2 -23 8 -27 13 -5
6 -11 5 -17 -4 -5 -8 -11 -9 -15 -3 -12 19 28 22 153 12 201 -16 338 -20 373
-10 32 10 455 -20 1007 -70 57 -6 110 -6 118 -1 9 5 31 4 52 -1 64 -17 153
-27 281 -33 69 -3 127 -5 130 -6 3 0 14 -2 25 -5 42 -8 715 -65 830 -70 66 -2
161 -6 210 -8 97 -4 311 -14 440 -22 44 -2 125 -6 180 -9 215 -11 292 -15 350
-20 33 -2 107 -7 165 -10 58 -3 128 -8 155 -10 51 -5 130 -10 315 -20 58 -4
116 -8 128 -11 15 -3 21 -1 17 6 -4 6 4 10 19 10 14 0 26 -4 26 -9 0 -8 49
-13 275 -27 44 -3 98 -7 120 -9 22 -2 76 -7 120 -10 44 -3 94 -8 110 -10 17
-2 86 -7 155 -10 69 -4 127 -8 130 -10 3 -2 61 -6 130 -10 69 -4 128 -9 131
-11 3 -1 47 -5 99 -9 51 -3 97 -8 102 -11 4 -3 8 1 8 9 0 9 9 12 30 9 17 -2
30 -8 30 -12 0 -5 39 -11 88 -15 48 -4 105 -9 127 -12 22 -3 155 -7 295 -8
223 -2 266 -5 345 -24 113 -27 145 -32 220 -36 33 -2 60 -4 60 -5 0 -4 264
-33 420 -45 111 -9 164 -14 205 -19 54 -8 203 -24 220 -24 8 0 40 -3 70 -6
102 -12 135 -14 145 -8 14 9 79 2 86 -10 3 -5 30 -11 60 -14 30 -2 72 -6 94
-9 55 -6 102 -12 320 -35 105 -11 206 -23 225 -25 19 -3 53 -8 74 -10 21 -2
57 -7 80 -11 23 -3 52 -8 66 -9 14 -2 45 -6 70 -10 54 -7 99 -13 160 -20 25
-2 70 -10 100 -16 30 -6 67 -11 82 -11 17 0 25 -5 21 -11 -4 -6 4 -8 21 -5 14
3 26 2 26 -1 0 -4 12 -7 28 -8 15 0 313 -26 662 -57 1264 -113 1855 -164 1859
-160 5 5 19 -59 -444 2169 -233 1122 -490 2360 -570 2750 -81 391 -151 727
-156 748 l-10 37 -1309 0 -1309 0 -14 -26 c-9 -18 -16 -23 -21 -15 -4 7 -2 18
4 26 11 13 -553 15 -4519 15 l-4531 0 2 -5982z m8944 5720 c4 -6 3 -8 -3 -5
-6 4 -14 0 -17 -9 -4 -10 -2 -13 7 -9 6 4 5 1 -4 -7 -9 -7 -16 -20 -16 -28 0
-18 -50 -99 -72 -118 -10 -8 -10 -11 -2 -6 9 4 12 3 7 -4 -8 -13 -36 -5 -36
11 0 20 104 187 117 187 6 0 15 -5 19 -12z m-232 -396 c6 -10 -97 -195 -110
-199 -5 -1 -15 1 -22 5 -9 6 2 33 44 105 51 89 74 111 88 89z m-236 -413 c1
-8 -22 -56 -51 -106 -49 -85 -55 -92 -72 -79 -17 12 -14 19 39 110 53 90 77
111 84 75z m-238 -389 c13 -8 10 -19 -19 -72 -61 -112 -80 -138 -96 -132 -8 4
-15 11 -15 16 0 12 103 198 110 198 3 0 12 -5 20 -10z m-230 -405 c10 -12 3
-31 -41 -107 -56 -94 -65 -104 -87 -89 -11 6 -1 31 45 109 32 56 61 102 64
102 4 0 12 -7 19 -15z m-222 -411 c3 -2 -104 -193 -112 -201 -1 -2 -11 3 -21
11 -17 12 -15 19 40 114 50 86 61 99 75 89 8 -6 16 -12 18 -13z m-7564 -95
c-8 -13 -21 -11 -27 5 -4 10 0 12 14 9 10 -3 16 -9 13 -14z m6703 -5 c3 -8 -2
-23 -11 -32 -14 -15 -18 -15 -31 -1 -9 9 -13 23 -9 32 8 21 43 22 51 1z
m-4224 -63 c15 -58 -21 -105 -52 -68 -15 18 -25 72 -17 92 4 11 15 15 33 13
21 -2 29 -10 36 -37z m4844 -232 c8 -8 -5 -38 -46 -110 -31 -54 -59 -99 -62
-99 -3 0 -12 6 -21 13 -15 11 -10 22 40 109 57 97 68 108 89 87z m-7231 -105
c16 -4 20 -11 17 -25 -6 -22 -4 -22 -133 -8 -89 11 -100 14 -100 32 0 19 4 19
98 13 53 -4 107 -10 118 -12z m432 -40 c40 -5 52 -10 52 -23 0 -10 -2 -20 -4
-22 -3 -2 -56 0 -118 6 -108 10 -113 11 -116 34 -4 26 -5 26 186 5z m425 -40
c84 -6 87 -7 87 -31 0 -25 -1 -25 -62 -19 -177 19 -168 16 -168 43 0 21 3 24
28 19 15 -3 66 -8 115 -12z m466 -44 c46 -5 85 -11 87 -13 2 -1 1 -12 -2 -23
-5 -19 -9 -19 -117 -8 -62 7 -113 13 -114 13 -2 1 -3 10 -3 21 0 24 20 25 149
10z m474 -46 c74 -6 77 -7 77 -31 0 -25 -2 -25 -47 -20 -27 4 -81 9 -120 13
-60 5 -73 10 -73 24 0 26 11 32 50 26 19 -3 70 -8 113 -12z m520 -50 c9 -3 17
-15 17 -26 0 -20 -4 -20 -97 -14 -121 9 -133 12 -133 38 0 20 4 20 98 14 53
-4 105 -10 115 -12z m420 -40 c65 -6 76 -14 59 -41 -6 -9 -29 -10 -97 -3 -50
5 -100 10 -112 10 -18 0 -23 6 -23 26 0 26 1 26 53 20 28 -3 82 -8 120 -12z
m525 -73 l4 -24 -89 7 c-129 10 -153 15 -153 35 0 10 2 20 4 22 3 2 56 0 118
-6 108 -10 113 -11 116 -34z m3732 39 c18 -9 15 -17 -38 -110 -57 -99 -65
-107 -90 -91 -11 6 -1 31 44 110 32 55 60 101 62 101 2 0 12 -5 22 -10z
m-3317 -56 c42 -5 47 -8 47 -31 0 -23 -3 -25 -32 -20 -18 4 -70 9 -115 13 -80
6 -83 8 -83 31 0 25 1 25 68 19 37 -4 88 -9 115 -12z m415 -40 c51 -4 95 -10
97 -14 3 -5 2 -16 -1 -25 -6 -15 -17 -16 -78 -11 -136 13 -156 17 -156 35 0
23 10 32 29 27 9 -3 58 -8 109 -12z m520 -50 c32 -5 42 -11 42 -25 0 -10 -3
-20 -7 -22 -5 -2 -57 1 -118 7 -105 10 -110 12 -113 35 l-4 24 79 -7 c43 -3
97 -9 121 -12z m420 -40 c79 -6 82 -8 82 -31 0 -25 -1 -25 -67 -19 -162 15
-163 16 -163 43 0 23 3 25 33 20 17 -4 69 -9 115 -13z m456 -44 c48 -5 90 -11
93 -14 3 -2 2 -13 -1 -23 -5 -17 -13 -17 -118 -8 -106 9 -113 11 -116 33 -4
26 5 27 142 12z m479 -46 c74 -6 77 -7 77 -31 0 -25 -2 -25 -47 -20 -27 4 -81
9 -120 13 -60 5 -73 10 -73 24 0 26 11 32 50 26 19 -3 70 -8 113 -12z m520
-50 c9 -3 17 -15 17 -26 0 -20 -4 -20 -97 -14 -121 9 -133 12 -133 38 0 20 4
20 98 14 53 -4 105 -10 115 -12z m295 -40 c16 -16 55 -221 45 -236 -2 -5 -12
-8 -22 -8 -15 0 -21 17 -35 103 -9 56 -21 104 -26 105 -6 2 -10 15 -10 28 0
28 23 32 48 8z m-2613 -424 c0 -28 -4 -36 -22 -38 -24 -4 -38 25 -28 59 5 14
14 19 28 17 18 -2 22 -10 22 -38z m2731 -222 c6 -54 5 -58 -14 -58 -22 0 -23
3 -42 120 -6 36 -13 75 -15 87 -4 17 0 22 17 25 21 3 24 -3 35 -57 6 -33 15
-86 19 -117z m67 -398 c16 -104 13 -128 -15 -117 -9 3 -19 36 -27 88 -7 46
-15 96 -18 111 -4 20 -1 27 13 30 11 3 22 2 25 -1 4 -3 14 -53 22 -111z
m-7233 -170 c0 -12 -28 -25 -36 -17 -9 9 6 27 22 27 8 0 14 -5 14 -10z m2198
-77 c-2 -20 -9 -28 -23 -28 -14 0 -21 8 -23 28 -3 23 0 27 23 27 23 0 26 -4
23 -27z m5272 -54 c16 -29 4 -69 -19 -69 -21 0 -31 19 -31 61 0 22 5 29 20 29
10 0 24 -9 30 -21z m-170 -111 c7 -40 16 -91 20 -112 10 -46 6 -56 -19 -56
-15 0 -21 17 -36 111 -15 95 -16 112 -4 120 24 15 27 11 39 -63z m-3770 47 c0
-8 -4 -15 -9 -15 -5 0 -11 7 -15 15 -3 9 0 15 9 15 8 0 15 -7 15 -15z m7375
-624 c7 -12 -12 -24 -25 -16 -11 7 -4 25 10 25 5 0 11 -4 15 -9z m555 -41 c0
-38 -26 -41 -40 -4 -13 34 -13 34 15 34 21 0 25 -5 25 -30z m-1630 -101 c0
-24 -4 -29 -25 -29 -19 0 -25 5 -25 23 0 13 5 28 11 34 18 18 39 3 39 -28z
m-2385 -151 c9 -43 35 -202 32 -204 -1 -1 -11 -4 -23 -8 -19 -6 -21 1 -38 104
-9 60 -14 114 -11 120 11 18 34 11 40 -12z m4333 -30 c-2 -5 -7 -9 -11 -9 -4
1 -17 1 -29 1 -22 1 -22 1 -5 15 20 14 50 10 45 -7z m-4245 -508 c21 -125 21
-127 -3 -133 -11 -3 -20 -2 -20 1 0 4 -8 55 -19 114 -10 59 -16 110 -13 113 3
3 13 5 22 5 14 0 20 -20 33 -100z m79 -465 c22 -129 22 -125 -5 -125 -22 0
-24 7 -40 108 -21 132 -21 124 5 120 20 -3 24 -13 40 -103z m62 -382 c2 -16
10 -59 16 -98 6 -38 13 -78 15 -87 2 -13 -3 -18 -20 -18 -21 0 -24 7 -35 68
-6 37 -14 88 -17 115 -5 43 -4 47 15 47 14 0 22 -8 26 -27z m89 -540 c21 -132
21 -123 -3 -123 -21 0 -23 5 -40 110 -6 36 -13 77 -16 93 -5 23 -2 27 18 27
23 0 25 -6 41 -107z m-41 -258 c13 -29 -4 -79 -24 -73 -19 7 -31 67 -17 84 17
20 28 17 41 -11z m2456 -87 c21 -26 25 -84 7 -101 -9 -10 -20 -17 -24 -17 -29
0 -52 89 -31 115 15 18 34 19 48 3z m-2354 -25 c3 -10 10 -54 16 -98 6 -44 13
-88 16 -97 4 -14 -1 -18 -18 -18 -23 0 -25 6 -41 108 -10 59 -17 110 -17 115
0 15 39 6 44 -10z m89 -543 c21 -125 21 -130 -2 -130 -16 0 -21 12 -31 68 -25
142 -25 162 -3 162 17 0 22 -12 36 -100z m-4159 -176 c7 -18 -13 -66 -30 -71
-16 -5 -24 35 -14 63 11 27 35 32 44 8z m4221 -206 c2 -13 9 -52 15 -88 6 -36
13 -77 16 -92 5 -23 2 -28 -15 -28 -22 0 -24 4 -41 110 -6 36 -13 77 -16 93
-5 22 -2 27 15 27 13 0 22 -8 26 -22z m75 -445 c0 -5 7 -50 15 -102 16 -99 15
-121 -8 -121 -9 0 -18 33 -30 108 -21 131 -21 122 3 122 11 0 20 -3 20 -7z
m69 -462 c12 -8 13 -16 4 -45 -8 -25 -8 -38 -1 -43 6 -3 8 -1 4 5 -3 6 -3 13
2 16 11 7 13 -36 2 -49 -5 -6 -5 -17 0 -24 4 -8 6 -21 2 -29 -3 -10 -1 -13 6
-8 19 12 25 -15 7 -32 -10 -10 -15 -11 -11 -4 4 6 3 12 -3 12 -5 0 -8 11 -6
25 1 14 -2 25 -6 25 -5 0 -8 3 -7 8 0 4 -1 14 -5 22 -3 8 -10 41 -15 73 -9 59
-4 68 27 48z m-1858 -459 c26 -31 61 -73 77 -92 32 -36 32 -44 3 -59 -15 -8
-31 5 -95 80 -75 87 -77 91 -60 110 9 10 20 19 23 19 3 0 27 -26 52 -58z
m-1691 18 c0 -12 -12 -26 -31 -35 -31 -17 -59 -14 -59 5 0 13 61 41 72 34 5
-3 8 0 8 5 0 6 2 11 5 11 3 0 5 -9 5 -20z m-1580 -336 c0 -24 -19 -54 -35 -54
-8 0 -21 10 -29 22 -14 19 -14 23 0 33 24 17 64 17 64 -1z m3541 -3 c8 -11 40
-51 71 -88 44 -53 56 -74 51 -92 -3 -12 -12 -21 -19 -19 -7 2 -47 43 -88 92
-71 85 -75 91 -59 108 20 23 27 23 44 -1z m-5496 -97 c0 -19 -6 -30 -16 -32
-20 -4 -30 28 -17 52 14 25 33 14 33 -20z m5735 -58 c0 -3 -7 -6 -15 -6 -9 0
-15 9 -15 21 0 18 2 19 15 5 8 -8 15 -17 15 -20z m106 -258 c88 -106 88 -106
74 -123 -23 -28 -31 -22 -159 138 -24 29 -24 30 -6 43 10 8 22 14 25 14 3 0
33 -32 66 -72z m308 -369 c42 -50 76 -94 76 -98 0 -3 -9 -12 -20 -18 -17 -11
-26 -4 -96 78 -74 87 -76 91 -59 109 10 11 19 20 21 20 1 0 36 -41 78 -91z
m301 -359 c64 -75 75 -93 65 -105 -7 -8 -18 -15 -25 -15 -7 0 -44 39 -84 86
-68 83 -71 88 -55 105 10 11 18 19 20 19 1 0 37 -41 79 -90z m-7448 54 c-3 -3
-12 -4 -19 -1 -8 3 -5 6 6 6 11 1 17 -2 13 -5z m8458 -145 c4 -32 4 -32 -11
-10 -9 12 -13 29 -10 38 9 22 16 12 21 -28z m-706 -271 c70 -85 74 -91 56
-104 -10 -8 -22 -14 -25 -14 -3 0 -33 32 -66 72 -88 106 -88 106 -74 123 7 8
18 15 24 14 6 0 44 -41 85 -91z m298 -356 c66 -80 70 -88 56 -104 -20 -22 -23
-20 -110 84 -54 65 -63 81 -53 93 7 8 18 15 24 14 6 0 43 -39 83 -87z m283
-151 c0 -9 -7 -26 -15 -37 -14 -18 -14 -18 -15 8 0 34 10 59 21 52 5 -3 9 -13
9 -23z m-1879 -206 c-1 -10 -20 -14 -34 -7 -4 2 -5 8 -1 13 7 13 35 8 35 -6z
m1167 -172 c-10 -2 -28 -2 -40 0 -13 2 -5 4 17 4 22 1 32 -1 23 -4z m-789
-562 c16 -10 7 -47 -14 -54 -22 -9 -38 18 -25 42 12 23 18 25 39 12z m595
-2413 c20 -29 20 -52 0 -69 -14 -11 -18 -10 -30 6 -15 20 -19 67 -7 78 11 12
21 8 37 -15z m-1414 -1374 l73 -95 -20 -20 -20 -20 -73 95 c-71 94 -73 97 -55
116 10 11 19 20 20 20 1 0 35 -43 75 -96z m-1843 -291 c2 -6 -4 -13 -13 -17
-21 -8 -26 -3 -18 18 7 18 25 17 31 -1z m2133 -85 l71 -92 -22 -17 c-22 -16
-23 -15 -96 78 -60 76 -72 97 -62 109 6 8 17 14 25 14 7 0 45 -41 84 -92z
m-3830 -632 c0 -2 -9 -6 -20 -9 -11 -3 -18 -1 -14 4 5 9 34 13 34 5z"/>
<path d="M11776 33313 c2 -10 58 -277 124 -593 65 -316 200 -964 299 -1440 99
-476 230 -1103 290 -1395 344 -1660 424 -2043 451 -2165 19 -85 27 -136 20
-138 -5 -2 -8 -8 -4 -13 3 -5 -107 -204 -244 -442 -138 -237 -278 -481 -312
-542 -35 -60 -86 -150 -115 -200 -120 -204 -297 -521 -387 -690 -111 -210
-139 -260 -183 -335 -18 -30 -49 -86 -70 -125 -21 -38 -77 -140 -125 -225 -48
-85 -102 -182 -120 -215 -18 -33 -75 -132 -126 -220 -275 -476 -384 -667 -384
-672 0 -2 -26 -48 -58 -101 -32 -54 -78 -131 -102 -172 -24 -41 -65 -111 -92
-155 -26 -43 -48 -85 -48 -92 0 -16 -37 -80 -69 -119 -14 -17 -33 -44 -42 -60
-9 -16 -58 -99 -109 -184 -51 -85 -101 -171 -112 -190 -11 -19 -29 -47 -39
-62 -11 -14 -19 -31 -19 -36 0 -6 -4 -12 -8 -14 -4 -1 -25 -32 -45 -68 -21
-36 -52 -87 -69 -115 -17 -27 -48 -77 -68 -110 -20 -33 -64 -103 -96 -155 -32
-52 -66 -107 -74 -121 -8 -15 -28 -46 -43 -70 -28 -43 -98 -163 -432 -729 -92
-157 -174 -289 -182 -293 -7 -5 -11 -12 -8 -17 3 -4 -7 -15 -20 -24 -14 -9
-23 -21 -20 -26 4 -6 -1 -10 -10 -10 -9 0 -14 -4 -11 -9 4 -5 3 -11 -1 -13
-10 -4 -63 -87 -133 -205 -29 -51 -57 -90 -61 -87 -4 2 -7 -4 -7 -13 0 -10
-18 -51 -41 -92 -23 -41 -41 -82 -40 -90 3 -36 -1 -52 -13 -45 -6 4 -8 3 -5
-3 4 -6 2 -25 -3 -43 -5 -19 -11 -59 -12 -91 -1 -32 -5 -56 -9 -53 -4 2 -4
-11 0 -29 10 -42 3 -88 -15 -108 -14 -15 -7 -27 71 -120 135 -161 197 -229
207 -223 4 3 8 -2 8 -10 0 -9 4 -16 9 -16 20 0 372 -361 572 -585 134 -151
329 -374 364 -416 76 -91 251 -299 290 -344 24 -27 61 -72 82 -100 30 -40 136
-175 216 -275 67 -84 136 -173 152 -196 11 -15 28 -36 38 -46 9 -10 17 -20 17
-23 0 -5 29 -45 121 -167 11 -15 20 -30 19 -34 -1 -4 2 -10 7 -13 14 -9 86
-111 118 -166 32 -55 35 -59 76 -105 16 -18 29 -36 29 -40 0 -5 31 -40 69 -79
38 -39 78 -90 89 -113 21 -43 32 -144 18 -166 -4 -7 -4 -12 0 -12 3 0 -6 -16
-20 -35 l-27 -35 -2 -347 c-1 -192 2 -379 6 -418 5 -38 10 -279 13 -535 3
-256 8 -482 11 -503 3 -21 0 -57 -5 -80 -6 -23 -14 -186 -17 -362 -3 -176 -8
-357 -11 -403 -5 -66 -3 -89 11 -118 15 -32 15 -37 2 -52 -15 -17 -17 -37 -32
-452 -10 -245 -35 -804 -40 -860 -2 -30 -7 -113 -10 -185 -7 -159 -8 -175 -40
-580 -8 -104 -18 -226 -21 -270 -4 -44 -9 -84 -12 -89 -3 -5 -6 -28 -8 -50 -1
-23 -5 -73 -8 -111 -8 -101 -66 -1704 -66 -1838 0 -28 -5 -39 -19 -45 -11 -4
-20 -11 -19 -17 0 -8 -139 -76 -642 -314 -91 -43 -277 -133 -415 -199 -137
-66 -295 -141 -350 -167 -55 -26 -190 -90 -300 -142 -110 -53 -240 -115 -290
-138 -49 -23 -191 -91 -315 -150 -124 -59 -306 -146 -405 -192 -257 -122 -218
-103 -2050 -973 -2042 -969 -1849 -877 -1980 -940 -60 -29 -236 -112 -390
-185 -154 -73 -460 -218 -681 -323 -433 -205 -441 -208 -465 -148 -7 17 -43
83 -79 146 -37 63 -196 346 -355 628 -158 281 -293 512 -300 512 -7 0 -17 18
-23 40 -9 37 -70 150 -317 585 -56 99 -358 635 -670 1190 -313 556 -571 1012
-574 1015 -3 3 -14 22 -23 42 -10 21 -23 38 -30 38 -6 0 -9 3 -5 6 7 7 -15 54
-47 99 -11 17 -21 35 -21 40 -1 6 -6 9 -13 8 -7 -2 -11 0 -10 5 4 14 -21 72
-32 72 -6 0 -9 4 -5 9 3 6 -3 18 -14 28 -11 10 -21 25 -23 33 -2 8 -10 21 -18
28 -8 8 -9 11 -3 7 9 -4 11 -1 7 10 -4 9 -13 14 -20 11 -12 -5 -16 0 -13 20 0
3 -7 11 -17 18 -9 7 -14 18 -11 23 4 6 0 13 -8 17 -8 3 -15 13 -15 21 0 10 5
13 12 9 7 -5 8 -3 4 5 -5 7 -15 10 -23 7 -8 -3 -11 -2 -8 3 3 5 0 13 -6 17 -8
4 -7 9 2 15 10 6 6 9 -13 9 -23 0 -28 4 -28 25 0 14 -7 28 -16 32 -8 3 -13 12
-10 20 3 8 2 11 -4 8 -5 -3 -11 14 -13 37 -2 24 -4 -2314 -5 -5194 l-2 -5238
19960 0 c10978 0 19960 3 19960 8 0 7 -28 139 -160 767 -34 160 -95 454 -136
655 -41 201 -81 394 -88 430 -8 36 -30 142 -49 236 -20 95 -39 196 -42 225
-10 83 -12 92 -19 127 -5 19 -4 32 2 32 5 0 15 -27 23 -60 7 -33 17 -60 21
-60 10 0 10 -2 -1 37 -5 18 -6 35 -2 37 4 3 8 0 9 -7 0 -7 23 -111 50 -232
l49 -220 71 0 c49 0 75 -4 84 -15 11 -12 11 -12 -5 0 -13 10 -21 10 -25 3 -4
-6 -20 -15 -35 -18 -18 -5 -26 -12 -23 -21 4 -10 -2 -14 -19 -14 -13 0 -26 -4
-29 -8 -4 -7 35 -192 120 -566 14 -60 59 -267 100 -460 41 -193 84 -369 94
-391 11 -21 16 -42 11 -45 -5 -3 9 -81 30 -175 22 -93 41 -179 43 -190 2 -11
7 -32 11 -47 l7 -28 4994 0 4994 0 0 5154 c0 4901 -1 5155 -17 5159 -17 4 -17
5 0 6 9 0 17 5 17 10 0 5 -18 5 -42 -1 -41 -8 -464 -107 -1027 -239 -140 -32
-258 -65 -263 -71 -12 -19 -10 -28 7 -28 10 0 15 -10 15 -30 0 -20 -5 -30 -15
-30 -15 0 -16 -86 -20 -2445 -3 -1366 -8 -1856 -19 -1790 -8 50 -10 659 -7
2154 l3 2084 -43 -32 c-43 -30 -1124 -864 -1679 -1294 -476 -370 -833 -646
-1305 -1012 -719 -557 -1433 -1113 -1525 -1186 -81 -66 -99 -83 -156 -156 -20
-26 -31 -31 -52 -28 -22 4 -52 -15 -178 -112 -133 -104 -527 -409 -1063 -824
-96 -74 -229 -177 -297 -229 -67 -52 -202 -156 -301 -232 -98 -75 -198 -152
-223 -171 -142 -110 -1041 -796 -1070 -817 -19 -14 -38 -26 -42 -26 -5 -1 -13
-2 -19 -3 -5 0 -7 -6 -4 -11 7 -11 -17 -9 -25 2 -3 4 -12 3 -20 -2 -11 -7 -12
-10 -2 -10 7 0 10 -4 7 -10 -10 -16 -25 -12 -25 7 0 15 -2 14 -15 -3 -13 -16
-14 -16 -9 -1 7 18 105 96 894 712 267 207 494 387 505 399 11 12 55 51 98 86
42 36 77 68 77 72 0 4 5 8 11 8 6 0 42 28 80 62 l69 61 -25 17 c-28 18 -24 30
11 30 13 0 26 5 29 11 4 6 22 8 44 4 33 -5 41 -2 78 32 22 21 44 39 47 40 10
4 200 155 211 167 6 7 44 38 85 71 41 32 77 62 80 65 3 4 12 11 21 16 20 11
82 61 114 91 13 13 27 23 30 23 4 0 13 6 20 13 17 15 28 23 80 62 22 16 47 35
55 42 58 46 108 85 166 128 38 28 76 58 86 67 10 10 21 18 26 18 4 0 18 10 32
23 14 12 60 52 103 87 154 127 144 116 125 137 -16 18 -16 20 0 45 16 24 19
25 37 12 21 -16 47 -11 88 18 15 11 55 34 88 50 32 16 59 33 59 38 0 4 13 13
30 20 17 7 30 17 30 22 0 5 5 6 10 3 6 -3 10 -1 10 4 0 6 4 11 9 11 6 0 22 11
37 25 14 13 30 22 35 19 5 -3 9 0 9 5 0 6 15 17 33 25 17 7 93 60 168 117 74
57 221 169 325 249 283 216 1693 1301 2339 1800 1511 1166 1553 1199 1547
1209 -2 3 -9 5 -15 5 -10 -1 -1106 -250 -1361 -309 -55 -13 -58 -13 -43 2 9 9
24 17 34 18 29 3 48 9 54 18 3 4 14 9 25 11 10 2 82 20 159 39 77 19 239 58
360 87 121 29 334 80 473 114 l253 61 -28 21 c-24 18 -497 345 -1048 724 -341
235 -400 278 -397 289 1 7 -2 9 -9 6 -10 -7 -186 106 -201 129 -4 6 -11 11
-15 11 -18 1 -62 38 -56 48 4 6 1 7 -7 2 -8 -5 -18 -1 -27 10 -7 11 -13 16
-13 12 0 -3 -44 23 -97 58 -53 36 -98 64 -99 62 -1 -1 -77 -182 -169 -402
-292 -698 -401 -950 -409 -947 -15 6 -25 -22 -14 -35 8 -10 7 -12 -4 -8 -10 4
-28 -27 -67 -115 -29 -66 -57 -117 -62 -114 -5 3 -5 13 1 23 5 10 6 22 2 26
-4 5 -2 5 4 2 7 -4 12 2 12 16 0 23 103 281 446 1117 107 261 192 478 189 483
-3 4 -39 34 -82 65 -114 84 -149 134 -49 70 112 -72 126 -80 112 -56 -5 8 -2
9 12 4 48 -20 32 -50 249 477 42 104 85 214 96 245 10 32 23 66 28 77 5 11 28
70 51 130 50 132 133 339 165 415 13 30 58 136 101 235 42 99 99 227 126 285
28 58 161 368 295 690 135 322 296 707 358 855 210 502 491 1178 700 1680 114
275 248 596 296 713 49 117 89 218 89 224 0 7 -44 57 -98 112 -53 56 -237 245
-407 421 -451 466 -617 637 -830 855 -105 107 -263 269 -350 360 -466 481
-743 760 -758 760 -4 0 -6 4 -3 9 4 5 2 11 -4 13 -9 3 -221 208 -215 208 1 0
-39 43 -89 95 -50 52 -120 126 -156 165 -228 249 -308 334 -646 685 -259 270
-710 741 -1191 1244 -167 174 -303 322 -303 329 0 7 -4 11 -9 8 -11 -7 -33 18
-24 27 3 4 2 7 -4 7 -6 0 -13 9 -16 21 -4 13 -10 18 -18 13 -8 -4 -10 -3 -5 4
4 7 1 12 -8 12 -9 0 -16 6 -16 14 0 20 17 29 26 15 4 -8 3 -9 -4 -5 -7 4 -12
2 -12 -3 0 -6 7 -11 15 -11 8 0 15 -5 15 -11 0 -5 4 -7 10 -4 6 3 10 -4 10
-15 0 -15 5 -20 15 -17 8 4 17 1 21 -5 5 -7 2 -8 -7 -4 -8 5 2 -5 21 -20 19
-16 94 -89 167 -161 73 -73 135 -133 139 -133 4 0 13 -8 21 -17 11 -14 16 -15
20 -5 6 15 88 -67 853 -853 1062 -1092 1525 -1571 2165 -2240 126 -132 235
-244 241 -250 6 -5 113 -118 239 -250 126 -132 292 -305 370 -385 77 -80 250
-260 385 -400 134 -140 303 -315 375 -388 l130 -133 80 15 c94 18 156 27 206
31 20 1 41 5 47 9 7 4 569 106 587 106 3 0 5 3494 5 7765 l0 7765 -19114 0
c-18199 0 -19114 -1 -19110 -17z m10231 -2358 c2 -6 -3 -20 -11 -30 -14 -19
-16 -19 -32 -3 -15 14 -15 20 -4 33 14 17 41 17 47 0z m15080 -1 c3 -8 -2 -23
-11 -32 -15 -15 -17 -15 -33 0 -13 14 -14 20 -3 32 16 20 39 20 47 0z m-19319
-36 c20 -26 24 -75 7 -92 -9 -9 -21 -16 -26 -16 -16 0 -41 71 -35 96 7 26 37
32 54 12z m1797 -1448 c0 -28 -4 -36 -22 -38 -24 -4 -38 25 -28 59 5 14 14 19
28 17 18 -2 22 -10 22 -38z m15080 0 c0 -29 -4 -36 -22 -38 -20 -3 -23 1 -23
31 0 38 7 49 30 45 10 -2 15 -15 15 -38z m-20175 -4144 c0 -7 -6 -21 -14 -31
-12 -16 -16 -17 -30 -6 -20 17 -20 25 -1 45 17 16 45 11 45 -8z m15080 0 c0
-7 -6 -21 -14 -31 -12 -16 -16 -17 -30 -6 -20 17 -20 25 -1 45 17 16 45 11 45
-8z m15080 0 c0 -7 -6 -21 -14 -31 -12 -16 -16 -17 -30 -6 -20 17 -20 25 -1
45 17 16 45 11 45 -8z m-19321 -30 c18 -21 18 -95 1 -106 -24 -15 -30 -12 -46
25 -17 42 -18 67 -2 83 16 16 33 15 47 -2z m-13331 -1128 c7 -7 12 -19 12 -27
0 -17 -53 -107 -156 -266 -89 -138 -154 -245 -189 -313 -23 -44 -27 -61 -21
-98 6 -45 5 -47 -42 -87 -201 -177 -257 -282 -197 -374 18 -27 104 -70 145
-73 14 -1 41 -2 62 -1 31 1 35 4 31 21 -4 15 0 20 16 20 12 0 21 -6 21 -16 0
-12 7 -14 33 -9 139 30 309 159 371 281 66 131 6 223 -156 239 -37 4 -68 11
-68 16 0 45 247 63 325 24 179 -90 24 -390 -280 -543 -115 -58 -228 -85 -350
-86 -110 -1 -110 -1 -178 37 -74 42 -88 42 -138 0 -64 -54 -139 -60 -123 -9 7
20 109 188 198 326 24 36 67 103 96 150 72 114 141 222 190 295 62 91 184 282
227 355 70 118 137 172 171 138z m47 -328 c0 -28 -4 -36 -22 -38 -24 -4 -38
25 -28 59 5 14 14 19 28 17 18 -2 22 -10 22 -38z m15080 0 c0 -28 -4 -36 -22
-38 -14 -2 -23 3 -28 17 -10 34 4 63 28 59 18 -2 22 -10 22 -38z m15080 0 c0
-28 -4 -35 -20 -35 -16 0 -21 8 -23 38 -3 35 -1 38 20 35 19 -2 23 -9 23 -38z
m-27121 -933 c8 -22 6 -31 -8 -45 -16 -16 -18 -16 -32 2 -8 11 -14 33 -14 49
0 24 4 28 22 25 14 -2 26 -14 32 -31z m27207 -331 c15 9 10 -33 -5 -45 -17
-14 -26 -3 -21 25 2 10 4 24 5 29 1 6 4 4 7 -3 2 -6 9 -10 14 -6z m-84 -338
c-3 -8 -6 -5 -6 6 -1 11 2 17 5 13 3 -3 4 -12 1 -19z m-12 -21 c3 -6 -51 -210
-121 -452 -73 -257 -126 -460 -127 -487 0 -26 -4 -45 -8 -42 -5 2 -12 -3 -17
-13 -11 -22 -69 -216 -76 -258 -6 -30 -13 -57 -60 -220 -15 -49 -42 -146 -62
-215 -20 -69 -42 -145 -50 -170 -8 -25 -50 -164 -94 -310 -110 -365 -105 -350
-181 -590 -64 -201 -134 -416 -146 -450 -3 -8 -7 -19 -9 -25 -1 -5 -10 -30
-19 -55 -9 -25 -70 -214 -135 -420 -65 -206 -209 -663 -320 -1015 -289 -913
-309 -979 -306 -982 1 -2 37 4 80 12 43 8 80 15 82 15 2 0 4 -8 4 -18 0 -16
-16 -22 -86 -37 -63 -13 -84 -21 -80 -32 5 -13 216 -306 378 -524 43 -58 78
-111 78 -118 0 -6 4 -11 8 -11 5 0 14 -12 21 -27 14 -31 9 -26 -37 33 -18 23
-32 46 -32 52 0 6 -3 12 -7 14 -5 2 -21 21 -38 42 -16 22 -95 126 -175 232
-80 106 -149 192 -153 193 -11 0 -107 124 -101 130 2 2 0 9 -6 15 -6 8 28 128
96 346 148 474 261 838 369 1190 116 378 457 1497 490 1605 51 169 65 215 113
370 28 88 121 392 207 675 353 1160 427 1396 463 1482 11 25 18 49 15 51 -8 9
7 27 23 27 8 0 17 -6 19 -13z m-20176 -2506 c16 -10 7 -47 -14 -54 -22 -9 -38
18 -25 42 12 23 18 25 39 12z m15080 0 c19 -12 4 -51 -19 -51 -25 0 -33 15
-20 40 12 22 18 24 39 11z m-19311 -43 c5 -7 13 -28 17 -46 8 -37 -7 -62 -35
-62 -22 0 -45 60 -36 96 7 26 37 33 54 12z m15079 0 c31 -39 20 -108 -16 -108
-19 0 -41 43 -41 79 0 34 38 53 57 29z m-23532 -46 c-9 -9 -35 8 -35 24 0 16
2 16 20 -1 11 -10 18 -20 15 -23z m2022 -693 c9 -9 8 -19 -3 -40 -19 -39 -34
-37 -34 4 0 46 14 59 37 36z m8221 -678 c20 -12 11 -75 -10 -79 -25 -5 -44 39
-29 67 13 23 19 25 39 12z m15080 0 c20 -12 11 -75 -10 -79 -25 -5 -44 39 -29
67 13 23 19 25 39 12z m15090 -35 c3 -26 -10 -45 -30 -46 -14 0 -29 41 -23 61
10 32 49 21 53 -15z m-27122 -941 c7 -29 -1 -45 -26 -45 -25 0 -43 63 -24 83
12 11 44 -13 50 -38z m19574 -419 c0 -2 -9 -6 -20 -9 -11 -3 -18 -1 -14 4 5 9
34 13 34 5z m-300 -66 c0 -5 0 -13 -1 -17 0 -5 -45 -17 -99 -28 -90 -19 -99
-20 -103 -5 -2 9 1 17 7 18 6 0 47 10 91 20 97 24 105 25 105 12z m-420 -95
c0 -8 -10 -17 -22 -20 -190 -42 -188 -42 -188 -20 0 8 10 17 23 20 12 3 49 11
82 19 80 19 105 19 105 1z m-424 -101 c-5 -7 -200 -42 -207 -38 -28 17 -1 32
94 50 91 17 103 18 108 4 4 -8 6 -16 5 -16z m-72 -859 c3 -8 1 -15 -4 -15 -6
0 -10 7 -10 15 0 8 2 15 4 15 2 0 6 -7 10 -15z m124 -180 c-3 -3 -9 2 -12 12
-6 14 -5 15 5 6 7 -7 10 -15 7 -18z m302 -405 c3 -3 59 -73 123 -157 64 -83
136 -166 160 -185 58 -45 110 -99 103 -106 -4 -3 -12 0 -18 6 -7 7 -19 12 -28
11 -11 0 -9 -4 8 -16 12 -8 22 -21 22 -28 0 -7 7 -15 15 -19 8 -3 15 -10 15
-16 0 -6 11 -23 25 -38 14 -15 25 -31 25 -36 0 -9 27 -47 163 -231 49 -66 96
-126 105 -132 9 -7 13 -13 9 -13 -4 0 1 -9 11 -19 22 -25 29 -34 77 -98 22
-29 43 -53 47 -53 4 0 8 -5 8 -10 0 -12 93 -128 118 -147 9 -7 12 -13 8 -13
-4 0 10 -21 31 -47 21 -26 43 -54 48 -61 6 -7 15 -18 20 -25 22 -25 122 -162
123 -169 1 -5 10 -16 20 -26 41 -42 491 -646 675 -907 43 -60 86 -121 97 -135
67 -90 150 -211 150 -219 0 -5 7 -15 16 -22 9 -7 31 -36 50 -64 19 -27 53 -78
76 -111 24 -34 61 -88 83 -120 22 -33 43 -60 48 -62 4 -2 7 -8 7 -13 0 -5 15
-28 33 -53 17 -24 41 -58 52 -77 11 -18 25 -40 30 -49 13 -20 154 -217 290
-405 60 -82 136 -188 169 -235 33 -47 79 -111 104 -143 24 -31 42 -62 40 -67
-3 -9 -22 14 -184 225 -43 55 -81 102 -86 104 -5 2 -130 164 -277 360 -356
475 -340 453 -358 475 -100 122 -166 206 -208 261 -16 22 -33 45 -38 50 -4 6
-40 53 -78 105 -39 52 -78 104 -88 115 -37 44 -227 299 -271 365 -13 19 -27
37 -30 40 -4 3 -21 26 -38 52 -18 26 -41 53 -52 61 -11 8 -28 30 -38 49 -20
39 -68 110 -168 247 -40 54 -79 112 -88 129 -9 18 -21 32 -26 32 -6 0 -10 4
-10 10 0 5 -10 21 -21 34 -12 14 -27 34 -33 45 -6 11 -42 66 -81 123 -38 56
-72 107 -74 112 -2 6 -14 18 -25 28 -12 9 -18 17 -14 18 12 0 -650 911 -694
955 -20 20 -20 20 -14 -47 5 -57 4 -68 -9 -68 -8 0 -17 10 -19 23 -23 108 -34
181 -30 189 3 4 -4 21 -15 37 -11 15 -18 31 -15 34 3 3 -20 43 -50 90 -31 46
-56 88 -56 93 0 5 6 0 12 -11 6 -11 14 -22 18 -25z m204 -682 c3 -18 10 -60
16 -92 12 -73 13 -93 2 -80 -5 5 -14 47 -21 92 -7 46 -15 90 -18 98 -3 8 0 14
5 14 6 0 13 -15 16 -32z m-27129 -388 c11 -17 -5 -50 -25 -50 -10 0 -21 7 -24
16 -11 30 33 60 49 34z m15080 0 c11 -17 -5 -50 -25 -50 -10 0 -21 7 -24 16
-11 30 33 60 49 34z m15080 0 c11 -17 -5 -50 -25 -50 -10 0 -21 7 -24 16 -11
30 33 60 49 34z m-2954 -115 c8 -58 12 -105 8 -105 -5 0 -11 31 -36 178 -3 17
-1 32 4 32 5 0 16 -47 24 -105z m-16364 73 c31 -40 20 -108 -17 -108 -22 0
-45 59 -36 96 7 26 37 33 53 12z m15081 0 c16 -20 20 -83 5 -81 -7 2 -10 -3
-7 -11 6 -15 -11 -16 -32 -3 -15 9 -26 69 -18 91 7 19 37 21 52 4z m-27985
-24 c8 -8 -21 -71 -100 -215 -116 -212 -136 -255 -125 -276 6 -10 79 -52 164
-93 180 -89 191 -103 109 -145 -28 -14 -64 -25 -80 -25 -16 0 -82 25 -146 55
-124 58 -154 65 -176 39 -8 -9 -54 -95 -104 -192 -77 -151 -96 -181 -130 -204
-44 -29 -82 -40 -91 -26 -9 14 10 56 105 233 46 88 93 177 104 199 33 68 25
77 -149 162 -135 66 -155 78 -152 97 4 26 85 70 127 70 15 0 83 -26 152 -57
113 -53 126 -57 148 -45 14 9 58 80 115 186 50 94 99 180 109 191 33 36 103
63 120 46z m29317 -381 c0 -8 16 -113 25 -170 3 -18 2 -33 -2 -33 -5 0 -15 39
-22 88 -7 48 -15 95 -17 105 -3 9 -1 17 5 17 6 0 11 -3 11 -7z m-22845 -334
c10 -16 -4 -61 -18 -56 -11 4 -18 43 -10 60 6 10 21 9 28 -4z m22910 -111 c8
-39 25 -152 25 -173 0 -17 -2 -17 -10 -5 -5 8 -10 29 -10 45 0 17 -6 58 -14
93 -7 34 -9 62 -4 62 4 0 10 -10 13 -22z m-3001 -81 c8 -6 7 -10 -2 -14 -6 -2
-10 -9 -6 -14 3 -5 1 -9 -5 -9 -5 0 -16 -6 -23 -13 -17 -16 7 1 -725 -500
-103 -70 -189 -131 -192 -135 -4 -4 -23 -18 -43 -31 -21 -12 -38 -27 -38 -32
0 -5 -6 -9 -13 -9 -8 0 -22 -9 -32 -20 -10 -11 -24 -20 -31 -20 -7 0 -14 -4
-16 -8 -1 -4 -19 -19 -38 -32 -19 -13 -54 -40 -78 -60 -24 -19 -46 -35 -50
-35 -14 -1 -221 -148 -253 -181 -15 -15 -31 -24 -37 -20 -6 3 -12 2 -14 -2 -1
-5 -61 -47 -133 -95 -71 -48 -135 -92 -142 -97 -7 -6 -17 -10 -23 -10 -5 0
-10 -4 -10 -10 0 -5 -7 -10 -15 -10 -8 0 -15 -3 -15 -8 0 -9 -184 -130 -185
-122 -1 3 -9 -2 -18 -12 -16 -16 -75 -56 -222 -150 -93 -60 -250 -158 -289
-182 -17 -10 -34 -23 -37 -28 -3 -5 -9 -8 -12 -6 -12 7 -244 -144 -1277 -830
-476 -316 -870 -575 -877 -575 -7 0 -10 -3 -8 -6 4 -8 -206 -147 -217 -144 -4
2 -8 -1 -8 -7 0 -5 -13 -16 -30 -25 -17 -9 -30 -11 -30 -5 0 5 7 10 15 10 8 0
15 4 15 10 0 5 -6 7 -14 4 -7 -3 -16 1 -19 9 -4 10 2 14 21 13 15 -1 27 4 27
11 0 11 64 66 100 86 19 10 19 9 5 -9 -14 -19 -14 -19 8 0 12 11 20 21 17 24
-7 7 39 41 48 35 5 -3 0 -11 -10 -19 -16 -12 -14 -12 14 -2 20 8 28 15 21 19
-9 6 -8 12 1 23 14 16 36 23 27 8 -3 -5 1 -9 9 -9 11 0 12 4 4 13 -7 9 -4 16
12 28 12 8 27 12 32 9 6 -3 7 -1 3 5 -4 7 -1 12 8 12 9 0 16 5 16 11 0 6 7 9
15 5 8 -3 15 0 15 7 1 7 47 43 103 81 220 147 1146 773 1222 825 44 30 273
185 510 345 236 159 439 298 449 308 11 10 23 18 27 18 4 0 30 18 57 39 27 22
53 37 56 34 3 -4 6 -1 6 5 0 7 7 12 15 12 8 0 15 4 15 8 0 11 182 138 193 134
4 -1 7 2 7 8 0 5 16 17 35 26 19 9 35 20 35 25 0 5 5 9 10 9 6 0 23 11 38 25
15 14 31 25 35 25 5 0 65 39 135 87 158 108 188 128 282 188 41 26 112 73 158
104 46 31 95 63 110 71 15 8 29 18 30 23 2 4 8 7 14 7 5 0 24 11 42 25 18 14
36 25 40 25 3 0 219 140 479 311 259 171 502 331 539 356 38 24 72 41 78 38 5
-3 10 2 11 12 0 14 2 15 6 3 3 -8 11 -19 17 -23z m3076 -414 c6 -49 14 -96 17
-107 3 -10 1 -16 -5 -13 -5 4 -15 41 -21 84 -7 43 -15 88 -18 101 -3 12 -1 22
5 22 5 0 15 -39 22 -87z m-29832 -104 c2 -28 -1 -38 -15 -43 -32 -13 -57 46
-31 72 22 22 43 9 46 -29z m15080 0 c2 -28 -1 -38 -15 -43 -32 -13 -57 46 -31
72 22 22 43 9 46 -29z m15080 0 c2 -28 -1 -38 -15 -43 -32 -13 -57 46 -31 72
22 22 43 9 46 -29z m-259 -353 c7 -48 10 -90 8 -93 -5 -5 -37 162 -37 192 1
44 17 -12 29 -99z m62 -421 c8 -58 12 -105 8 -105 -6 0 -16 54 -34 178 -3 17
-2 32 3 32 4 0 15 -47 23 -105z m-26935 -150 c19 -29 10 -65 -16 -65 -19 0
-30 19 -30 54 0 42 22 48 46 11z m15064 9 c0 -8 -19 -13 -24 -6 -3 5 1 9 9 9
8 0 15 -2 15 -3z m17 -29 c0 -8 -4 -12 -9 -9 -4 3 -8 0 -8 -6 0 -6 -5 -8 -11
-5 -8 5 10 28 27 35 0 0 1 -7 1 -15z m11911 -217 c22 -132 24 -148 15 -148 -5
0 -10 15 -11 33 -2 32 -19 126 -28 160 -3 9 -1 17 4 17 6 0 15 -28 20 -62z
m71 -461 c12 -85 14 -123 6 -115 -5 4 -35 186 -35 207 0 3 4 1 9 -4 5 -6 14
-45 20 -88z m2534 -254 c6 -16 16 -31 22 -35 6 -5 3 -8 -6 -8 -17 0 -49 40
-49 60 0 20 21 9 33 -17z m-2474 -160 c7 -43 14 -90 17 -105 3 -16 2 -28 -3
-28 -5 0 -10 12 -11 28 -1 15 -4 38 -7 52 -3 14 -8 41 -11 60 -3 19 -8 43 -11
53 -2 9 0 17 5 17 5 0 15 -35 21 -77z m67 -445 c8 -46 13 -92 13 -103 l0 -20
-8 20 c-5 11 -11 43 -14 70 -4 28 -9 68 -13 90 -4 22 -3 37 1 33 4 -4 14 -45
21 -90z m63 -425 c7 -49 15 -96 17 -105 3 -10 1 -18 -4 -18 -11 0 -18 35 -28
135 -3 33 -8 63 -10 67 -3 5 -1 8 4 8 5 0 14 -39 21 -87z m-8699 -44 c0 -4 -9
-7 -19 -6 -11 0 -18 4 -16 7 6 9 35 8 35 -1z m-6 -31 c-2 -3 -13 -6 -24 -5
-24 2 -18 13 9 13 11 0 18 -4 15 -8z m-410 -247 c3 -5 -1 -11 -9 -14 -9 -4
-12 -1 -8 9 6 16 10 17 17 5z m12443 -13 c-3 -8 -6 -5 -6 6 -1 11 2 17 5 13 3
-3 4 -12 1 -19z m-3262 -104 c17 -104 18 -117 7 -110 -5 3 -9 18 -10 33 0 15
-5 57 -11 93 -12 74 -13 85 -6 78 3 -3 12 -45 20 -94z m-9240 76 c3 -5 1 -10
-4 -10 -6 0 -11 5 -11 10 0 6 2 10 4 10 3 0 8 -4 11 -10z m-158 -75 c0 -8 -4
-12 -9 -9 -5 3 -6 10 -3 15 9 13 12 11 12 -6z m-178 -147 c-6 -10 -14 -16 -20
-13 -5 4 -7 11 -4 16 4 5 1 9 -6 9 -7 0 -4 6 7 14 23 17 38 1 23 -26z m-54
-47 c3 -5 2 -12 -3 -15 -5 -3 -9 1 -9 9 0 17 3 19 12 6z m-65 -10 c0 -5 -7
-11 -15 -15 -15 -5 -20 5 -8 17 9 10 23 9 23 -2z m-19 -48 c13 -16 12 -17 -3
-4 -17 13 -22 21 -14 21 2 0 10 -8 17 -17z m-101 -17 c0 -2 -8 -10 -17 -17
-16 -13 -17 -12 -4 4 13 16 21 21 21 13z m13 -21 c-3 -9 -8 -14 -10 -11 -3 3
-2 9 2 15 9 16 15 13 8 -4z m-78 -25 c-5 -9 24 -15 48 -11 5 1 6 -3 2 -9 -3
-6 -11 -8 -16 -5 -5 4 -9 0 -9 -7 0 -10 -2 -10 -9 1 -5 7 -14 10 -20 6 -9 -5
-9 -10 -1 -20 7 -9 6 -16 -5 -25 -8 -7 -15 -9 -16 -4 0 5 -2 19 -5 31 -2 14 1
22 8 20 7 -1 13 4 14 11 3 19 4 22 10 22 3 0 2 -4 -1 -10z m9945 -120 c7 -56
10 -103 7 -106 -2 -3 -8 19 -12 48 -4 29 -8 60 -10 68 -15 78 -16 90 -8 90 5
0 16 -45 23 -100z m-9995 50 c-3 -5 -1 -10 5 -10 6 0 8 -5 5 -10 -4 -6 -14
-10 -23 -8 -10 1 -23 -1 -31 -6 -10 -7 -12 -6 -6 4 6 9 4 11 -4 5 -9 -5 -10
-10 -2 -18 7 -7 5 -14 -7 -23 -16 -12 -15 -15 13 -38 27 -22 31 -23 42 -9 10
13 15 14 28 3 8 -7 22 -10 30 -6 9 3 14 2 11 -3 -3 -5 1 -14 9 -21 10 -9 15
-9 15 -1 0 6 5 11 11 11 5 0 7 -6 3 -12 -5 -8 0 -7 11 2 10 8 16 10 12 4 -8
-14 20 -27 35 -17 7 3 8 1 4 -5 -3 -6 1 -15 9 -20 9 -5 13 -15 10 -24 -6 -15
-14 -14 -72 8 -36 14 -67 23 -68 22 -2 -2 66 -61 150 -133 110 -93 163 -131
186 -135 25 -4 34 -11 40 -32 4 -14 24 -42 45 -61 64 -57 1353 -1145 2034
-1716 107 -90 260 -218 339 -285 79 -67 160 -133 180 -148 20 -15 43 -34 52
-43 9 -8 21 -15 27 -15 6 0 16 -9 22 -20 6 -11 18 -20 26 -20 8 0 12 -4 9 -10
-3 -5 0 -10 8 -10 8 0 29 -13 46 -29 18 -17 34 -30 37 -30 10 0 124 -94 124
-102 0 -5 6 -9 14 -9 8 0 22 -10 30 -22 9 -12 16 -19 16 -14 0 5 8 0 18 -11 9
-11 76 -66 147 -123 72 -57 135 -109 140 -115 6 -6 37 -34 70 -61 33 -27 62
-52 63 -56 2 -5 10 -8 17 -8 7 0 15 -3 17 -8 2 -4 41 -40 88 -80 47 -40 103
-90 125 -110 22 -20 82 -73 134 -117 51 -44 113 -98 137 -120 24 -22 66 -60
95 -85 65 -57 105 -94 161 -147 25 -24 48 -40 51 -36 4 3 7 1 7 -5 0 -18 28
-44 404 -367 517 -445 581 -502 579 -513 -2 -6 3 -9 11 -6 7 3 23 -7 35 -22
11 -15 21 -23 21 -18 0 5 4 3 8 -3 6 -9 22 -3 61 23 l53 36 22 -21 21 -22 -55
-50 c-30 -28 -49 -48 -42 -44 6 3 12 1 12 -5 0 -7 24 -33 53 -58 93 -82 170
-162 163 -169 -3 -3 -6 -1 -6 5 0 6 -10 14 -22 18 -13 4 -68 44 -123 88 -123
101 -123 100 -140 86 -12 -10 -19 -8 -35 11 -11 13 -18 32 -16 41 4 16 -119
125 -338 302 -34 27 -81 67 -105 88 -24 21 -46 36 -48 34 -3 -2 -20 13 -40 35
-19 21 -39 37 -43 34 -4 -2 -22 9 -41 26 -19 17 -46 37 -61 45 -16 8 -28 19
-28 24 0 6 -3 9 -7 8 -5 -2 -20 8 -35 21 -14 13 -29 23 -32 22 -7 -1 -47 31
-87 70 -26 25 -79 62 -89 63 -6 1 -18 10 -109 86 -110 92 -165 135 -166 130 0
-4 -49 36 -87 73 -10 9 -18 14 -18 10 0 -4 -6 0 -12 8 -7 9 -38 35 -68 60 -30
24 -62 51 -71 59 -38 34 -78 67 -159 132 -151 121 -290 242 -290 252 0 5 -2 7
-5 4 -6 -6 -41 22 -99 77 -18 17 -54 48 -81 70 -27 22 -57 47 -65 55 -9 8 -45
40 -81 70 -35 30 -69 59 -76 65 -6 5 -32 28 -58 50 -26 22 -65 57 -88 78 -22
21 -49 43 -59 48 -10 6 -16 14 -13 20 4 5 1 9 -6 9 -6 0 -30 18 -53 40 -161
157 -253 239 -261 232 -4 -4 -5 -2 -3 3 1 6 -29 39 -67 74 -118 106 -165 155
-165 168 0 7 -5 13 -11 13 -5 0 -7 -4 -4 -10 10 -16 -1 -11 -16 7 -10 11 -10
14 -1 9 24 -14 12 6 -20 32 -18 15 -143 122 -278 237 -444 380 -1746 1485
-1873 1590 -20 17 -124 105 -232 197 -107 93 -195 164 -195 158 0 -5 4 -19 10
-32 8 -19 313 -853 515 -1408 29 -80 97 -264 150 -410 172 -469 235 -645 235
-653 0 -5 -6 -5 -12 -1 -7 4 -3 -3 10 -15 12 -12 20 -26 17 -31 -3 -4 -1 -10
5 -12 13 -4 17 -42 5 -45 -5 -2 -10 3 -10 10 0 6 -3 14 -6 17 -13 10 -39 82
-33 91 3 5 1 9 -4 9 -5 0 -13 15 -19 33 -19 58 -282 768 -357 967 -25 63 -71
189 -104 280 -55 150 -170 461 -369 995 -41 109 -77 202 -80 205 -3 3 -3 -3 0
-12 3 -10 1 -20 -6 -24 -7 -4 -9 -4 -5 1 4 4 3 16 -2 26 -7 12 -7 20 0 24 6 4
8 11 4 16 -3 5 -9 7 -14 4 -4 -3 -6 4 -3 15 4 13 0 20 -10 20 -19 0 -29 37
-11 44 8 3 11 12 7 21 -4 12 -1 16 13 15 38 -4 45 0 39 19 -3 11 -1 22 5 26 5
3 10 2 10 -4 0 -12 39 -6 54 9 13 13 19 13 11 0z m-91 -41 c-3 -5 -10 -7 -15
-3 -5 3 -7 10 -3 15 3 5 10 7 15 3 5 -3 7 -10 3 -15z m544 -238 c38 -15 52
-17 62 -8 9 8 11 8 7 1 -4 -7 6 -17 23 -24 31 -13 37 -24 19 -35 -16 -10 -189
55 -189 71 0 19 20 18 78 -5z m-32670 -100 c4 -39 -13 -64 -28 -41 -5 8 -10
30 -10 48 0 27 4 33 18 30 11 -2 18 -14 20 -37z m42277 -105 c8 -54 13 -101
10 -104 -7 -7 -11 13 -24 103 -12 86 -14 111 -7 104 3 -2 12 -49 21 -103z
m-20498 68 c3 -8 -2 -23 -11 -32 -14 -15 -18 -15 -31 -1 -9 9 -13 23 -9 32 8
21 43 22 51 1z m11315 -15 c83 -30 99 -41 79 -53 -10 -7 -191 53 -191 63 0 9
11 21 19 21 3 0 45 -14 93 -31z m3765 16 c2 -6 -3 -20 -11 -30 -14 -19 -16
-19 -32 -3 -15 14 -15 20 -4 33 14 17 41 17 47 0z m-19307 -65 c8 -28 8 -46 0
-60 -20 -37 -51 -21 -64 33 -10 42 1 67 29 67 20 0 26 -7 35 -40z m15932 -91
c96 -37 95 -36 81 -50 -7 -7 -38 0 -99 22 -102 37 -98 34 -89 48 9 16 14 15
107 -20z m387 -139 c94 -34 96 -35 87 -49 -4 -6 -32 -1 -74 14 -108 37 -124
44 -117 55 9 14 10 14 104 -20z m8471 -213 c7 -48 10 -90 8 -93 -3 -2 -10 31
-17 73 -21 135 -21 139 -12 123 5 -8 14 -55 21 -103z m-8098 77 c40 -14 81
-28 91 -31 10 -3 16 -11 14 -17 -5 -13 -40 -9 -45 5 -2 5 -7 7 -11 4 -4 -2
-32 5 -62 16 -30 11 -60 22 -67 24 -7 3 -10 9 -7 15 8 13 2 14 87 -16z m343
-124 c4 -6 11 -8 16 -5 5 4 9 1 9 -5 0 -6 5 -8 10 -5 6 3 10 1 10 -5 0 -6 5
-8 12 -4 7 4 8 3 4 -5 -6 -8 -1 -10 17 -6 15 4 28 2 32 -6 5 -8 4 -10 -3 -5
-7 4 -12 1 -13 -6 0 -9 -2 -10 -5 -1 -3 7 -11 10 -19 7 -7 -3 -16 0 -20 5 -3
6 -11 9 -16 6 -5 -4 -9 -1 -9 5 0 7 -6 10 -12 7 -19 -7 -60 11 -53 23 8 13 32
13 40 0z m155 -59 c0 -13 -12 -20 -25 -14 -8 2 -11 11 -9 18 6 14 34 10 34 -4z
m-23630 -172 c0 -28 -19 -61 -31 -54 -13 9 -11 59 3 73 15 15 28 6 28 -19z
m-11276 -5 c3 -9 2 -22 -2 -30 -7 -13 -10 -13 -21 0 -14 16 -9 46 8 46 5 0 12
-7 15 -16z m42566 -121 c6 -49 14 -96 16 -105 3 -10 2 -18 -3 -18 -5 0 -10 12
-11 26 -1 15 -6 54 -12 88 -11 65 -12 96 -6 96 2 0 9 -39 16 -87z m-34870
-287 c0 -13 -48 -112 -106 -219 -77 -143 -105 -203 -102 -224 3 -25 17 -35
147 -99 79 -39 147 -77 151 -85 14 -22 -6 -45 -60 -68 -61 -26 -75 -23 -213
46 -139 69 -134 72 -240 -132 -48 -93 -100 -182 -114 -197 -28 -30 -86 -54
-103 -43 -16 10 -6 35 107 248 77 145 103 204 99 221 -4 18 -38 39 -150 94
-79 38 -147 75 -151 81 -4 7 -1 19 6 27 19 24 91 57 119 56 15 0 75 -23 134
-51 118 -55 145 -60 168 -33 8 9 52 87 96 172 82 157 102 184 157 213 42 22
55 21 55 -7z m35012 -173 c76 -53 87 -66 69 -77 -14 -9 -176 109 -172 125 2 8
4 28 3 44 l0 30 11 -33 c8 -26 30 -48 89 -89z m-23207 -113 c0 -28 -4 -36 -22
-38 -14 -2 -23 3 -28 17 -10 34 4 63 28 59 18 -2 22 -10 22 -38z m15085 25
c15 -18 5 -64 -15 -72 -9 -3 -22 0 -30 7 -15 13 -21 61 -8 73 11 12 40 8 53
-8z m8481 -162 c78 -55 85 -63 73 -76 -9 -9 -185 114 -178 124 10 16 25 9 105
-48z m-41535 -198 c18 -44 18 -74 -1 -81 -22 -9 -44 13 -51 52 -13 68 26 90
52 29z m41904 -74 c-1 -13 -3 -12 -15 3 -8 11 -15 17 -15 13 0 -11 -44 14 -53
29 -4 8 -16 14 -25 15 -14 0 -13 2 3 8 24 10 105 -43 105 -68z m-39381 -482
c-11 -22 -39 -15 -39 10 0 9 6 23 12 29 19 19 41 -14 27 -39z m3404 -42 c7
-23 6 -33 -7 -45 -16 -16 -18 -16 -32 2 -8 11 -14 33 -14 49 0 23 4 28 22 25
13 -2 25 -14 31 -31z m25847 -24 c0 -7 -7 -13 -17 -13 -9 0 -13 3 -10 7 4 3 1
13 -6 21 -9 13 -9 14 1 8 7 -4 12 -2 12 6 0 17 20 -12 20 -29z m8 -49 c0 -18
-3 -22 -9 -13 -11 18 -11 39 0 39 5 0 9 -12 9 -26z m-31974 -49 c8 -23 -4 -45
-25 -45 -14 0 -19 7 -19 30 0 23 5 30 19 30 10 0 21 -7 25 -15z m32001 5 c3
-5 1 -10 -4 -10 -6 0 -11 5 -11 10 0 6 2 10 4 10 3 0 8 -4 11 -10z m50 -140
c3 -5 1 -10 -4 -10 -6 0 -11 5 -11 10 0 6 2 10 4 10 3 0 8 -4 11 -10z m5 -40
c6 -11 8 -20 6 -20 -3 0 -10 9 -16 20 -6 11 -8 20 -6 20 3 0 10 -9 16 -20z
m7315 -30 c21 -23 26 -18 -78 -95 l-78 -58 -17 24 c-9 13 -17 25 -17 26 0 4
160 122 166 123 3 0 14 -9 24 -20z m-7271 -94 c-5 -14 -9 -15 -15 -4 -5 7 -9
22 -9 33 0 17 2 18 15 4 9 -9 13 -23 9 -33z m6921 -166 c22 -24 24 -21 -75
-94 -69 -52 -75 -54 -92 -39 -10 9 -18 20 -18 24 0 8 150 127 161 128 3 1 14
-8 24 -19z m-34125 -75 c0 -69 -8 -79 -42 -48 -35 31 -15 113 28 113 11 0 14
-15 14 -65z m33778 -186 c8 -12 10 -25 5 -30 -30 -29 -157 -118 -164 -113 -5
3 -14 14 -19 24 -9 17 0 27 71 80 44 33 84 60 87 60 4 0 13 -10 20 -21z m-348
-261 c17 -22 17 -22 -67 -85 -47 -35 -89 -61 -94 -57 -5 3 -13 13 -19 24 -8
15 2 27 72 79 45 34 83 61 86 61 2 0 12 -10 22 -22z m-348 -260 c15 -22 12
-25 -68 -85 -46 -35 -85 -63 -87 -63 -3 0 -12 11 -21 24 -16 25 -15 25 67 85
45 33 85 61 88 61 4 0 13 -10 21 -22z m-349 -261 c15 -23 13 -25 -71 -86 l-85
-63 -18 23 c-10 13 -16 25 -15 27 13 12 162 122 167 122 4 0 14 -10 22 -23z
m-346 -263 c12 -19 6 -25 -73 -83 -81 -60 -86 -63 -99 -45 -8 11 -14 24 -14
29 0 13 151 125 163 122 5 -2 15 -12 23 -23z m-701 -511 c7 -10 14 -21 14 -25
0 -9 -156 -128 -167 -128 -4 0 -16 11 -25 24 -16 22 -16 23 65 84 45 33 86 61
91 62 5 0 15 -8 22 -17z m-350 -260 c7 -10 14 -21 14 -25 0 -4 -36 -35 -81
-69 -78 -59 -81 -60 -100 -43 -11 10 -18 22 -17 26 4 12 150 127 162 128 5 0
15 -8 22 -17z m-343 -266 c15 -23 14 -25 -69 -86 -46 -34 -89 -59 -94 -56 -5
3 -14 14 -20 25 -8 15 2 27 72 79 45 34 85 61 89 61 4 0 14 -11 22 -23z m-350
-261 c15 -23 14 -24 -70 -86 -71 -52 -88 -60 -99 -48 -7 7 -14 18 -16 24 -3
11 147 134 163 134 4 0 14 -11 22 -24z m-22473 -20 c0 -7 -6 -21 -14 -31 -12
-16 -16 -17 -30 -6 -20 17 -20 25 -1 45 17 16 45 11 45 -8z m15080 0 c0 -7 -6
-21 -14 -31 -12 -16 -16 -17 -30 -6 -20 17 -20 25 -1 45 17 16 45 11 45 -8z
m15080 0 c0 -7 -6 -21 -14 -31 -12 -16 -16 -17 -30 -6 -20 17 -20 25 -1 45 17
16 45 11 45 -8z m-5230 -11 c0 -7 3 -28 6 -46 4 -19 3 -31 -1 -26 -5 4 -10 17
-12 30 -2 12 -7 25 -12 30 -5 5 -2 -26 6 -68 8 -42 12 -82 10 -88 -2 -7 -10
15 -16 48 -7 33 -19 73 -27 88 -8 16 -12 32 -9 37 8 13 55 9 55 -5z m-29171
-19 c18 -21 18 -95 1 -106 -24 -15 -30 -12 -46 25 -17 42 -18 67 -2 83 16 16
33 15 47 -2z m15089 -30 c10 -33 10 -42 -3 -62 -20 -31 -42 -21 -56 26 -23 76
34 111 59 36z m14111 -96 c1 -13 0 -13 -9 0 -5 8 -9 26 -9 40 l1 25 8 -25 c4
-14 8 -32 9 -40z m8 -52 c-3 -8 -6 -5 -6 6 -1 11 2 17 5 13 3 -3 4 -12 1 -19z
m-22 -24 c9 -50 1 -52 -12 -4 -5 22 -7 40 -3 40 4 0 11 -16 15 -36z m-2822 -8
c15 -23 15 -25 -10 -41 -21 -14 -27 -15 -35 -4 -7 11 -8 9 -6 -5 2 -13 -8 -25
-32 -39 -23 -12 -28 -13 -16 -3 11 9 16 16 10 16 -5 0 -1 7 9 14 10 8 17 23
15 35 -2 11 6 27 17 35 27 20 30 20 48 -8z m-866 -5 c14 -18 17 -32 6 -29 -5
0 -15 -1 -23 -5 -8 -3 -35 -8 -60 -11 -424 -49 -501 -56 -517 -47 -15 9 -13
10 10 7 16 -3 25 -1 22 5 -4 5 -11 7 -16 4 -5 -4 -9 -1 -9 5 0 6 -6 8 -12 4
-10 -5 -10 -4 -1 6 8 9 110 24 285 45 322 37 300 36 315 16z m3730 -53 c-3 -8
-6 -5 -6 6 -1 11 2 17 5 13 3 -3 4 -12 1 -19z m-2987 -3 c-7 -8 -17 -15 -23
-15 -6 0 -2 7 9 15 25 19 30 19 14 0z m2957 -17 c-3 -8 -6 -5 -6 6 -1 11 2 17
5 13 3 -3 4 -12 1 -19z m3998 -98 c-8 -13 8 -13 21 0 7 7 11 6 11 -6 0 -13 -8
-15 -39 -11 -21 3 -36 1 -32 -4 3 -5 -10 -9 -29 -9 -19 0 -49 -3 -66 -6 -25
-5 -31 -3 -31 11 0 14 6 16 30 13 17 -3 30 -1 30 3 0 4 21 10 48 12 26 2 51 4
55 5 5 1 5 -2 2 -8z m-375 -54 c0 -10 -20 -16 -67 -20 -38 -4 -83 -10 -100
-13 -26 -4 -33 -2 -33 10 0 11 13 17 43 21 23 3 53 7 67 10 59 8 90 6 90 -8z
m-413 -49 c-4 -10 -31 -17 -84 -22 -43 -4 -86 -9 -96 -11 -13 -2 -17 2 -15 14
3 14 22 19 98 27 52 6 97 10 99 8 2 -1 1 -9 -2 -16z m-407 -45 c0 -16 -13 -20
-100 -28 -85 -8 -100 -7 -102 6 -3 12 15 17 82 26 123 16 120 16 120 -4z
m-6141 -52 c5 -16 6 -30 2 -30 -12 0 -41 47 -34 54 12 12 21 5 32 -24z m5726
9 c9 -14 6 -17 -40 -23 -115 -16 -153 -17 -160 -6 -10 17 -7 18 75 28 106 13
118 13 125 1z m-412 -53 c4 -10 -10 -15 -58 -20 -35 -4 -82 -9 -105 -12 -32
-5 -40 -3 -40 9 0 11 14 18 48 22 26 3 54 8 62 9 41 9 88 5 93 -8z m-415 -43
c-3 -15 -21 -20 -101 -28 -86 -9 -97 -9 -95 5 2 11 27 18 98 26 52 6 96 12 98
13 2 0 2 -7 0 -16z m-408 -47 c0 -9 -26 -17 -88 -25 -111 -14 -112 -14 -112 3
0 9 24 16 83 23 118 14 117 14 117 -1z m-410 -50 c0 -9 -12 -14 -35 -14 -30 0
-34 2 -24 14 6 8 22 14 35 14 14 0 24 -6 24 -14z m-102 -8 c-2 -6 -12 -12 -21
-14 -9 -1 -15 2 -11 7 3 5 10 7 15 4 5 -4 9 -1 9 4 0 6 3 11 6 11 3 0 4 -5 2
-12z m-720 -103 c-1 -2 -50 -6 -107 -10 -86 -7 -103 -5 -99 6 7 21 190 39 201
21 5 -7 7 -15 5 -17z m-418 -31 c0 -7 -24 -14 -57 -18 -32 -4 -77 -9 -100 -12
-35 -5 -43 -3 -43 10 0 12 9 17 33 16 17 0 55 4 82 8 66 11 85 10 85 -4z
m-410 -44 c0 -5 -4 -10 -10 -10 -5 0 -10 5 -10 10 0 6 5 10 10 10 6 0 10 -4
10 -10z m-86 -16 c3 -8 2 -12 -4 -9 -6 3 -10 10 -10 16 0 14 7 11 14 -7z
m-26409 -484 c0 -28 -4 -36 -22 -38 -24 -4 -38 25 -28 59 5 14 14 19 28 17 18
-2 22 -10 22 -38z m15080 0 c0 -41 -27 -53 -45 -20 -16 30 -3 62 23 58 18 -2
22 -10 22 -38z"/>
<path d="M42140 22210 c0 -5 7 -10 16 -10 8 0 12 5 9 10 -3 6 -10 10 -16 10
-5 0 -9 -4 -9 -10z"/>
<path d="M33735 9749 c-4 -6 -5 -12 -2 -15 2 -3 7 2 10 11 7 17 1 20 -8 4z"/>
<path d="M33766 9743 c-6 -14 -5 -15 5 -6 7 7 10 15 7 18 -3 3 -9 -2 -12 -12z"/>
<path d="M33701 9721 c-8 -6 -9 -11 -3 -15 6 -3 14 -1 17 5 9 14 2 20 -14 10z"/>
<path d="M5594 23135 c-3 -6 -20 -11 -39 -10 -19 1 -32 -2 -29 -6 3 -5 -2 -9
-11 -9 -9 0 -37 -9 -62 -21 -25 -11 -54 -21 -64 -22 -10 -1 -19 -4 -19 -8 0
-4 -16 -10 -35 -13 -19 -4 -35 -11 -35 -17 0 -6 -4 -8 -8 -5 -9 6 -135 -38
-128 -45 2 -2 -9 -5 -26 -5 -17 -1 -34 -7 -38 -13 -4 -7 -10 -12 -14 -11 -14
3 -73 -14 -105 -31 -19 -10 -38 -16 -43 -13 -4 3 -11 -2 -14 -11 -6 -13 -8
-14 -15 -3 -6 9 -9 9 -9 1 0 -7 -16 -15 -35 -19 -19 -3 -35 -10 -35 -15 0 -5
-11 -9 -25 -9 -14 0 -25 -5 -25 -11 0 -6 -6 -9 -14 -6 -8 3 -17 0 -20 -8 -3
-8 -13 -11 -25 -8 -12 3 -21 1 -21 -5 0 -5 -18 -12 -40 -16 -23 -3 -39 -10
-36 -15 3 -4 -6 -6 -19 -3 -15 2 -25 0 -25 -7 0 -7 -5 -9 -11 -5 -6 3 -14 2
-18 -4 -3 -5 -15 -12 -26 -14 -11 -1 -27 -10 -35 -19 -8 -9 -20 -14 -27 -12
-6 2 -31 -5 -55 -15 -58 -26 -106 -44 -113 -43 -3 1 -21 -5 -40 -13 -19 -8
-35 -13 -35 -10 0 3 -12 -1 -27 -9 -36 -19 -126 -52 -135 -49 -4 1 -22 -6 -40
-16 -27 -15 -61 -28 -98 -37 -3 0 -14 -6 -25 -12 -31 -17 -123 -42 -129 -36
-3 4 -6 1 -6 -5 0 -7 -7 -12 -15 -12 -8 0 -23 -4 -33 -9 -9 -5 -53 -22 -97
-37 -44 -15 -83 -32 -86 -37 -3 -5 -9 -8 -13 -7 -13 4 -151 -44 -158 -54 -4
-6 -8 -7 -8 -2 0 5 -7 2 -17 -5 -9 -8 -18 -13 -20 -11 -7 7 -63 -10 -63 -19 0
-5 -5 -9 -11 -9 -5 0 -7 6 -3 13 4 6 -1 5 -12 -5 -20 -17 -90 -49 -102 -46 -4
1 -19 -4 -34 -10 -72 -31 -84 -35 -94 -38 -25 -5 -140 -48 -151 -57 -7 -5 -16
-6 -21 -3 -4 2 -34 -8 -65 -24 -31 -16 -57 -27 -57 -25 0 3 -97 -30 -150 -52
-8 -3 -24 -8 -35 -10 -11 -2 -21 -8 -23 -13 -2 -6 -10 -10 -17 -10 -8 0 -26
-5 -42 -12 -15 -6 -31 -11 -35 -10 -5 1 -8 -2 -8 -6 0 -4 -12 -9 -26 -10 -14
-1 -31 -5 -37 -9 -7 -4 -16 -8 -22 -9 -5 -1 -23 -8 -40 -15 -16 -7 -33 -12
-37 -11 -5 1 -8 -2 -8 -7 0 -9 -48 -26 -64 -22 -5 1 -12 -2 -15 -8 -4 -5 -18
-12 -31 -14 -43 -8 -114 -39 -127 -55 -7 -9 -13 -11 -13 -5 0 6 -24 1 -58 -13
-31 -13 -65 -24 -74 -24 -10 0 -18 -5 -18 -11 0 -5 -4 -7 -10 -4 -5 3 -23 -1
-40 -10 -16 -8 -30 -12 -30 -8 0 5 -4 2 -8 -4 -4 -7 -17 -14 -27 -16 -11 -2
-30 -9 -43 -15 -12 -7 -27 -10 -32 -7 -6 3 -10 2 -10 -3 0 -6 -17 -13 -37 -17
-21 -4 -54 -15 -73 -25 -19 -10 -55 -25 -80 -35 -25 -9 -60 -23 -78 -31 -18
-8 -39 -14 -48 -14 -8 0 -26 -7 -39 -16 -14 -9 -25 -13 -25 -9 0 4 -7 2 -15
-5 -8 -7 -15 -9 -15 -6 0 4 -10 1 -22 -6 -13 -7 -26 -11 -29 -10 -4 1 -19 -23
-35 -54 -19 -37 -35 -56 -52 -61 -33 -8 -72 12 -72 37 0 19 -2 20 -27 7 -16
-8 -41 -18 -58 -22 -37 -10 -35 -10 -65 -22 -14 -6 -47 -18 -75 -27 -27 -10
-54 -21 -60 -26 -6 -5 -22 -11 -35 -14 -14 -3 -50 -14 -80 -26 -30 -11 -91
-34 -135 -49 -44 -16 -106 -40 -137 -54 -32 -15 -70 -29 -85 -33 -16 -3 -37
-9 -48 -14 -37 -15 -60 -23 -79 -27 -11 -2 -25 -8 -31 -13 -6 -5 -20 -11 -31
-13 -10 -1 -24 -6 -31 -10 -8 -5 -13 3 -16 25 -2 18 -4 -50 -4 -152 0 -102 2
-169 6 -150 5 31 9 35 36 34 49 -2 276 -14 335 -19 30 -2 105 -7 165 -11 61
-3 130 -8 155 -10 25 -1 90 -6 145 -9 55 -3 102 -11 103 -16 2 -5 8 -6 13 -3
20 12 252 0 292 -15 12 -5 33 -5 47 -2 14 4 36 5 50 3 14 -2 44 -4 68 -5 23
-1 42 -4 42 -7 0 -3 38 -5 85 -5 47 0 85 -3 85 -6 0 -4 41 -7 92 -8 50 -1 94
-3 97 -5 3 -2 71 -7 151 -10 80 -4 172 -9 205 -11 80 -7 167 -13 295 -20 58
-3 132 -8 165 -10 105 -7 367 -24 470 -30 189 -11 410 -24 522 -31 99 -6 113
-5 119 10 8 21 30 20 46 -2 9 -13 27 -19 58 -20 25 -1 86 -5 135 -8 50 -3 115
-7 145 -9 30 -1 80 -5 110 -8 30 -4 116 -9 190 -12 74 -3 158 -7 185 -10 68
-6 178 -13 310 -20 61 -3 160 -10 220 -15 235 -20 473 -21 461 -1 -3 4 4 13
16 20 15 9 18 10 13 0 -5 -8 -4 -10 3 -5 7 4 12 13 12 20 0 7 11 19 25 26 13
7 22 16 20 20 -2 3 5 14 16 23 10 9 19 24 19 32 0 9 4 14 8 11 5 -3 9 14 11
37 1 23 6 44 10 47 5 3 9 52 9 110 0 58 1 107 2 110 1 5 8 210 15 480 2 91 5
167 6 170 1 3 0 13 -1 24 -1 10 4 23 12 27 7 5 8 9 2 9 -10 0 -10 15 0 175 3
44 5 118 5 165 -1 47 -1 97 0 113 4 90 7 117 11 117 3 0 6 64 7 143 3 266 7
362 18 369 7 5 7 8 0 8 -12 0 -12 131 0 150 5 9 4 11 -3 6 -13 -8 -16 7 -12
58 1 16 -2 26 -8 22 -5 -3 -8 6 -6 19 1 16 -3 25 -12 25 -8 0 -13 4 -11 8 2 7
-49 74 -55 72 -2 -1 -14 1 -28 4 -54 12 -112 13 -116 1z m176 -94 c13 -25 13
-31 0 -31 -5 0 -10 7 -10 15 0 8 -4 15 -10 15 -5 0 -10 5 -10 10 0 17 19 11
30 -9z m-2342 -771 c3 -30 -20 -66 -36 -56 -13 8 -16 45 -6 71 10 24 39 14 42
-15z m538 -34 c9 -36 1 -71 -16 -71 -16 0 -36 56 -27 79 10 24 36 19 43 -8z
m-1156 -143 c0 -5 -5 -15 -10 -23 -8 -12 -10 -11 -10 8 0 12 5 22 10 22 6 0
10 -3 10 -7z m1484 -195 c12 -33 -14 -68 -49 -68 -39 0 -47 48 -13 80 29 26
50 22 62 -12z m364 -163 c80 -19 110 -35 172 -90 58 -51 80 -55 124 -21 55 41
121 42 148 2 11 -16 10 -73 -1 -94 -6 -9 -63 -141 -128 -292 -125 -290 -145
-329 -181 -345 -12 -5 -22 -13 -22 -16 0 -4 -9 -5 -20 -2 -14 4 -20 0 -20 -12
0 -12 -5 -15 -16 -11 -9 3 -20 6 -26 6 -6 0 -8 10 -4 24 8 31 -31 88 -64 96
-14 3 -43 0 -65 -8 -53 -18 -178 -31 -240 -25 -27 3 -81 16 -120 29 -38 14
-75 26 -81 28 -23 4 -103 109 -119 154 -19 57 -19 152 0 215 35 115 147 253
253 310 112 61 281 82 410 52z m-2622 -50 c8 -33 -2 -57 -23 -53 -20 4 -34 48
-20 66 15 20 36 14 43 -13z m409 -5 c9 -29 -4 -60 -25 -60 -13 0 -22 9 -26 25
-11 44 38 77 51 35z m23 -526 c3 -47 -20 -68 -38 -34 -12 22 -13 63 -3 74 18
18 38 -1 41 -40z m-498 -18 c0 -13 -9 -34 -20 -47 -17 -21 -21 -22 -30 -9 -12
17 -4 61 13 72 22 14 37 8 37 -16z m2110 -147 c13 -24 5 -69 -12 -69 -18 0
-48 31 -48 50 0 19 19 40 37 40 7 0 17 -9 23 -21z"/>
<path d="M4440 21596 c-73 -21 -98 -37 -166 -103 -116 -114 -134 -271 -41
-349 61 -51 113 -67 222 -68 89 -1 106 2 157 26 169 79 262 279 184 396 -59
87 -232 135 -356 98z"/>
<path d="M3119 22403 c-13 -16 -12 -17 4 -4 16 13 21 21 13 21 -2 0 -10 -8
-17 -17z"/>
<path d="M5955 20590 c20 -23 29 -21 19 4 -3 9 -13 16 -22 16 -13 0 -12 -3 3
-20z"/>
<path d="M3 17350 c0 -1790 2 -3241 4 -3224 3 25 12 34 46 48 23 10 56 24 72
31 17 8 33 14 38 14 4 0 21 8 37 16 16 8 32 15 35 16 3 0 25 8 51 19 25 11 49
20 52 20 16 0 168 65 174 74 4 6 8 7 8 1 0 -5 5 -4 12 3 7 7 20 12 30 12 10 0
18 4 18 10 0 5 3 9 8 9 4 -1 13 -1 21 0 12 1 11 4 -3 14 -25 18 -18 72 9 72
13 0 23 -10 29 -30 6 -16 11 -31 12 -33 2 -3 73 25 139 54 22 10 42 18 45 19
16 4 60 20 95 36 67 30 119 50 139 55 11 2 24 8 30 14 5 5 19 10 30 10 11 0
27 6 35 13 9 7 35 19 59 27 23 7 42 16 42 19 0 4 9 7 20 8 12 1 74 25 139 52
64 28 120 51 124 51 3 0 18 5 34 12 15 6 30 12 33 13 22 5 53 31 60 51 10 26
40 33 40 9 0 -12 5 -12 43 1 23 8 51 18 62 24 33 15 274 112 288 114 6 2 38
15 70 30 32 14 59 26 62 26 2 0 16 5 32 12 15 6 30 12 33 13 3 1 22 9 44 18
21 9 45 17 52 17 8 0 14 4 14 8 0 5 34 19 75 32 41 13 75 27 75 32 0 5 4 7 9
3 5 -3 12 -1 16 5 4 6 11 8 16 4 5 -3 15 -1 22 4 13 11 205 92 218 92 4 0 20
5 36 12 15 6 30 12 33 13 3 1 18 7 33 13 16 7 33 12 38 12 5 0 9 5 9 11 0 5 4
8 8 5 5 -3 21 2 37 10 16 8 36 16 44 17 9 2 47 18 86 36 38 19 74 34 80 36 5
1 32 12 58 23 27 12 55 22 62 22 8 0 17 5 20 10 3 6 14 10 23 10 9 0 30 7 46
15 15 8 35 15 42 15 8 0 14 5 14 10 0 6 8 10 18 10 10 0 22 4 28 9 12 12 289
121 307 121 7 0 22 7 33 15 10 8 26 15 35 15 8 0 35 10 60 22 24 11 50 21 57
21 6 0 12 3 12 6 0 8 79 41 115 48 11 2 22 8 23 13 2 6 11 10 21 10 9 0 22 5
27 10 6 6 19 12 30 14 10 2 35 11 54 19 35 16 71 29 80 31 3 1 11 5 18 9 6 5
12 5 12 1 0 -4 10 1 22 12 14 13 19 14 14 4 -5 -9 -2 -8 7 2 8 10 17 15 20 12
3 -3 18 1 34 9 42 21 109 50 143 62 3 1 19 8 35 15 17 7 33 13 38 12 4 -1 7 2
7 8 0 5 8 10 17 10 9 0 35 8 57 19 23 10 66 27 96 37 30 10 62 24 71 31 9 8
20 13 25 11 10 -3 106 33 114 42 3 3 34 17 69 29 36 13 84 34 108 47 24 14 43
22 43 18 0 -4 6 -1 13 5 8 6 22 12 33 15 45 10 63 19 57 29 -4 6 0 8 10 4 10
-3 17 -3 17 2 0 13 33 47 53 54 9 3 17 14 17 22 0 9 5 13 10 10 6 -3 10 3 10
14 0 12 6 20 13 19 6 -2 11 3 9 10 -1 6 3 12 10 12 6 0 9 3 5 6 -3 4 2 23 12
43 10 20 16 42 13 50 -3 8 0 11 7 7 6 -4 11 -2 11 3 0 6 -6 11 -12 11 -8 0 -5
7 6 15 11 8 14 15 8 15 -7 0 -12 7 -12 16 0 8 4 12 10 9 6 -3 10 1 10 9 0 9
-5 16 -11 16 -5 0 -7 5 -4 10 4 6 12 7 18 3 9 -5 9 -3 1 8 -16 20 -23 68 -10
63 8 -3 11 13 11 45 0 27 -2 48 -5 46 -3 -2 -5 8 -5 21 0 15 5 22 12 20 9 -4
10 1 3 20 -13 33 -13 84 0 84 6 0 10 5 10 11 0 5 -4 8 -9 4 -13 -8 -11 58 2
67 7 4 6 12 -2 22 -10 12 -11 23 -2 47 13 38 13 42 3 35 -4 -2 -8 4 -8 14 0
10 4 16 8 14 4 -3 8 4 8 16 0 12 -4 19 -8 16 -5 -3 -6 8 -4 24 2 17 8 27 13
24 5 -3 9 0 9 5 0 6 -4 11 -10 11 -5 0 -10 18 -10 41 0 22 4 38 8 35 4 -2 9 4
9 15 1 10 -2 19 -6 19 -9 0 -7 83 3 99 4 6 13 9 19 5 7 -3 1 4 -13 16 -14 12
-19 19 -12 15 12 -6 17 7 6 18 -11 11 -7 112 5 135 8 14 8 23 1 27 -8 5 -8 11
0 20 8 9 8 15 0 20 -5 3 -10 12 -10 18 0 8 4 7 9 -2 11 -17 4 126 -6 143 -4 6
2 4 12 -4 17 -14 18 -13 10 5 -8 17 -9 43 -6 110 1 8 0 21 0 28 -1 6 2 21 7
31 4 12 4 17 -2 13 -6 -3 -10 10 -9 33 0 21 3 36 6 34 4 -2 15 6 25 19 16 19
17 20 1 8 -9 -8 -19 -12 -21 -10 -11 11 -8 139 3 153 10 11 10 20 1 37 -9 17
-9 23 0 29 9 6 9 9 0 12 -9 3 -9 10 0 30 9 19 10 35 2 57 -11 31 -5 74 9 66 4
-3 2 7 -6 21 -10 20 -11 33 -3 47 6 11 10 47 9 79 -1 32 3 58 8 58 4 0 5 19 1
42 -7 34 -5 45 8 55 11 8 12 12 5 13 -16 0 -17 66 -1 76 7 5 8 2 3 -7 -5 -8
-4 -11 0 -7 5 5 10 20 11 34 3 25 2 25 -12 8 -13 -18 -14 -17 -7 11 7 31 8 52
3 70 -6 22 1 56 10 50 6 -3 10 -1 10 4 0 6 -5 11 -11 11 -5 0 -7 5 -4 10 3 6
0 10 -7 10 -10 0 -10 2 -1 8 8 5 11 28 9 65 -2 31 0 54 5 51 5 -3 9 2 9 11 0
9 -4 14 -9 11 -5 -4 -8 2 -6 11 2 10 4 29 4 42 1 24 2 24 15 6 13 -18 14 -18
9 7 -3 18 -10 25 -20 21 -11 -5 -14 1 -10 25 3 17 8 35 11 41 4 5 2 12 -3 15
-10 6 -10 24 0 41 4 6 5 20 4 33 -1 12 2 22 6 22 4 0 10 7 13 16 3 9 2 12 -5
9 -6 -4 -10 -1 -8 6 3 29 -1 40 -13 33 -9 -6 -9 -3 1 9 7 9 11 24 7 32 -3 9
-2 14 3 11 5 -4 7 21 4 57 -3 34 -4 71 -3 82 3 37 1 120 -4 148 -2 16 0 27 7
27 8 0 7 3 -1 9 -8 4 -13 10 -11 12 5 8 -23 79 -31 79 -5 0 -11 8 -14 18 -9
26 -54 50 -127 66 -68 16 -142 22 -359 31 -74 3 -173 8 -220 10 -47 3 -132 7
-190 10 -703 34 -927 45 -990 50 -36 3 -128 8 -205 11 -77 3 -152 7 -167 10
-26 4 -28 2 -28 -30 0 -43 -21 -63 -44 -41 -9 9 -16 29 -16 45 l0 28 -107 7
c-60 3 -171 10 -248 15 -306 20 -385 22 -385 11 0 -15 -27 -14 -32 1 -4 12
-105 20 -398 33 -74 3 -182 10 -240 15 -58 5 -159 12 -225 15 -66 3 -154 8
-195 10 -41 2 -122 7 -180 10 -58 3 -127 8 -155 10 -94 8 -200 15 -340 20 -77
3 -171 8 -210 11 -38 2 -126 6 -195 9 -69 3 -136 7 -150 10 -14 3 -88 6 -165
7 l-140 2 -6 31 c-4 16 -6 -1435 -6 -3225z m1997 2855 c12 -14 5 -55 -9 -55
-17 0 -32 30 -26 50 8 24 18 25 35 5z m-1770 -446 c16 -28 4 -69 -19 -69 -13
0 -20 10 -24 30 -12 55 20 83 43 39z m2469 -103 c17 -31 10 -87 -12 -100 -26
-16 -57 24 -57 75 0 59 43 74 69 25z m-2634 -761 c0 -43 -29 -40 -33 3 -3 28
0 33 15 30 13 -2 18 -12 18 -33z m4426 -659 c14 -29 -3 -66 -30 -66 -30 0 -43
54 -19 78 19 19 37 14 49 -12z m-2263 -154 c3 -27 0 -33 -14 -30 -23 4 -39 31
-31 52 12 30 42 14 45 -22z m-631 -192 c7 -14 13 -42 13 -62 0 -30 -4 -38 -18
-38 -39 0 -72 72 -52 111 14 26 41 21 57 -11z m1759 -356 c8 -29 -7 -49 -30
-41 -16 6 -22 48 -9 60 14 15 33 6 39 -19z m-1111 -155 c10 -16 -4 -59 -19
-59 -17 0 -28 27 -21 51 7 21 30 25 40 8z m-846 -187 c16 -58 10 -82 -19 -82
-15 0 -20 7 -21 28 0 15 -3 40 -5 56 -12 74 25 72 45 -2z m4091 -768 c0 -17
-6 -24 -19 -24 -26 0 -32 21 -13 42 18 22 32 14 32 -18z m-3585 -1430 c0 -24
-5 -30 -27 -32 -22 -3 -28 1 -28 17 0 23 27 54 44 48 6 -2 11 -17 11 -33z
m-1420 -604 c4 -6 4 -18 1 -27 -5 -12 -9 -13 -21 -3 -8 7 -15 19 -15 26 0 16
26 19 35 4z"/>
<path d="M7030 20290 c20 -13 43 -13 35 0 -3 6 -16 10 -28 10 -18 0 -19 -2 -7
-10z"/>
<path d="M5780 20019 c0 -5 5 -7 10 -4 6 3 10 8 10 11 0 2 -4 4 -10 4 -5 0
-10 -5 -10 -11z"/>
<path d="M5802 19970 c0 -19 2 -27 5 -17 2 9 2 25 0 35 -3 9 -5 1 -5 -18z"/>
<path d="M5790 19690 c0 -5 5 -10 11 -10 5 0 7 5 4 10 -3 6 -8 10 -11 10 -2 0
-4 -4 -4 -10z"/>
<path d="M5773 19475 c0 -8 4 -12 9 -9 4 3 8 9 8 15 0 5 -4 9 -8 9 -5 0 -9 -7
-9 -15z"/>
<path d="M49780 17684 c-112 -21 -186 -30 -188 -24 -2 6 -10 4 -17 -4 -15 -15
-99 -31 -114 -22 -5 4 -11 2 -13 -3 -1 -5 -22 -11 -46 -14 -33 -3 -49 0 -70
16 l-27 21 19 -22 c15 -17 16 -23 5 -26 -12 -4 -241 -46 -252 -46 -2 0 -17
-30 -32 -67 -16 -38 -33 -70 -37 -71 -4 -2 -6 -8 -3 -13 4 -5 0 -6 -8 -3 -16
6 -62 -99 -273 -626 -19 -47 -39 -94 -44 -105 -36 -79 -52 -123 -52 -142 0
-14 -5 -20 -12 -16 -6 4 -5 -1 3 -10 12 -15 11 -17 -4 -17 -10 0 -15 -3 -12
-7 4 -3 -3 -21 -14 -40 -12 -18 -18 -40 -15 -49 4 -10 2 -13 -6 -8 -7 5 -9 -1
-6 -20 4 -18 0 -29 -10 -35 -9 -5 -17 -16 -18 -25 -1 -9 2 -13 8 -10 5 4 4 -4
-3 -17 -7 -13 -14 -30 -15 -37 -1 -8 -11 -23 -21 -35 -10 -11 -12 -17 -6 -13
9 5 11 2 7 -8 -3 -9 -10 -16 -16 -16 -5 0 -7 -3 -4 -8 2 -4 -3 -23 -11 -42 -9
-19 -17 -39 -19 -45 -1 -5 -37 -93 -79 -195 -42 -102 -171 -412 -285 -690
-468 -1136 -803 -1949 -898 -2180 -55 -135 -218 -528 -362 -875 -144 -346
-266 -642 -270 -656 -7 -25 -3 -31 51 -70 32 -23 59 -46 59 -51 0 -4 6 -8 14
-8 7 0 16 -9 19 -20 3 -11 11 -20 19 -20 10 0 9 3 -2 10 -8 5 -12 10 -7 10 15
0 86 -58 79 -65 -4 -5 -2 -5 4 -2 7 4 17 0 24 -8 7 -8 17 -15 22 -15 11 0 69
-40 85 -60 7 -8 13 -12 13 -8 0 4 53 -30 118 -75 64 -46 132 -92 150 -102 17
-11 32 -23 32 -27 0 -4 5 -8 10 -8 6 0 54 -30 108 -68 53 -37 150 -103 215
-147 64 -44 170 -116 235 -160 64 -44 189 -130 277 -190 88 -60 203 -139 255
-175 52 -36 111 -75 130 -85 19 -11 38 -24 42 -30 4 -5 8 -6 8 -2 0 5 7 1 16
-8 14 -13 19 -14 25 -3 6 9 9 9 9 1 0 -7 16 -15 36 -19 38 -7 68 -1 914 199
l475 113 3 3667 c2 3488 1 3667 -15 3666 -10 -1 -101 -17 -203 -35z"/>
<path d="M10767 16747 c-168 -73 -303 -135 -301 -139 3 -4 -3 -5 -12 -1 -13 5
-15 3 -9 -7 5 -8 4 -11 -2 -7 -16 10 -74 -13 -66 -26 4 -6 0 -8 -10 -4 -10 3
-17 2 -17 -3 0 -5 -7 -6 -17 -3 -11 4 -14 3 -9 -5 6 -11 -5 -17 -26 -13 -5 0
-8 -4 -8 -10 0 -5 -4 -8 -9 -5 -5 3 -11 -1 -15 -9 -3 -8 -12 -15 -20 -15 -24
0 -25 -27 -48 -895 -1 -46 2 -79 8 -78 5 1 70 27 144 57 74 31 136 56 137 56
1 0 -1 -7 -4 -17 -4 -11 -3 -14 5 -9 7 4 12 5 12 2 0 -14 -337 -163 -346 -153
-3 2 0 171 5 373 6 203 11 427 11 497 l0 128 -27 -26 c-25 -22 -37 -27 -59
-24 -4 0 -10 -3 -13 -8 -3 -4 -15 -15 -25 -23 -18 -13 -19 -13 -11 0 8 13 7
13 -11 0 -10 -8 -22 -20 -27 -27 -4 -6 -15 -10 -24 -9 -10 2 -26 -5 -37 -16
-11 -10 -27 -18 -37 -18 -9 0 -20 -7 -23 -16 -3 -8 -10 -13 -15 -10 -5 3 -19
-2 -32 -12 -13 -10 -44 -26 -69 -37 -25 -10 -52 -25 -61 -32 -9 -7 -19 -10
-22 -6 -4 3 -7 1 -7 -6 0 -7 -4 -10 -9 -7 -5 4 -11 2 -13 -3 -1 -5 -12 -11
-23 -13 -11 -1 -22 -6 -25 -9 -5 -6 -130 -72 -140 -74 -3 -1 -25 -10 -50 -22
-25 -11 -55 -24 -68 -28 -12 -3 -20 -10 -18 -14 3 -4 0 -8 -7 -8 -7 0 -57 -21
-112 -48 -154 -73 -203 -95 -214 -95 -6 0 -11 -4 -11 -10 0 -5 -5 -10 -12 -10
-6 0 -61 -24 -122 -54 -131 -63 -229 -106 -245 -106 -6 0 -11 -3 -11 -8 0 -4
-12 -13 -27 -19 -16 -7 -50 -22 -78 -34 -27 -12 -97 -43 -153 -70 -57 -27
-106 -49 -109 -49 -4 0 -29 -11 -57 -24 -54 -25 -116 -53 -206 -93 -30 -13
-77 -35 -105 -48 -27 -13 -171 -76 -320 -140 -148 -64 -288 -125 -310 -137
-22 -12 -53 -29 -69 -37 -36 -19 -52 -30 -74 -52 -29 -28 -72 -79 -70 -82 7
-6 -31 -47 -50 -54 -21 -8 -20 -11 25 -66 43 -55 45 -59 27 -72 -11 -8 -22
-15 -26 -15 -3 0 -30 29 -58 65 l-51 65 -113 -4 c-93 -2 -128 -8 -195 -31 -46
-16 -81 -34 -81 -42 0 -12 -25 -18 -57 -14 -11 2 -102 -36 -213 -87 -66 -31
-94 -42 -185 -78 -38 -14 -94 -37 -123 -50 -29 -13 -55 -24 -58 -24 -3 0 -42
-16 -87 -36 -126 -55 -136 -59 -232 -97 -100 -39 -128 -49 -133 -47 -2 1 -12
-10 -23 -24 -13 -17 -30 -26 -49 -26 -25 0 -66 -13 -125 -40 -48 -22 -95 -39
-95 -34 0 3 -12 -2 -27 -10 -16 -9 -62 -29 -103 -45 -41 -16 -93 -37 -115 -47
-22 -10 -42 -18 -45 -19 -6 -2 -57 -22 -80 -32 -8 -3 -17 -7 -20 -8 -3 0 -20
-9 -37 -18 -18 -10 -34 -17 -35 -16 -2 0 -16 -5 -33 -12 -16 -7 -32 -13 -35
-14 -21 -5 -62 -21 -100 -37 -82 -36 -279 -117 -295 -122 -5 -2 -23 -9 -40
-16 -16 -7 -34 -14 -40 -16 -5 -1 -98 -39 -205 -84 -107 -45 -202 -83 -210
-85 -8 -2 -57 -22 -107 -44 -51 -21 -93 -37 -93 -34 0 3 -6 0 -13 -6 -8 -6
-17 -8 -20 -4 -4 3 -7 1 -7 -5 0 -6 -17 -16 -37 -23 -21 -6 -44 -16 -50 -22
-7 -5 -13 -6 -13 -2 0 4 -6 3 -12 -3 -7 -6 -16 -11 -20 -11 -5 -1 -23 -8 -40
-15 -18 -8 -76 -31 -128 -51 -52 -21 -119 -48 -148 -61 -29 -13 -57 -24 -62
-24 -6 0 -10 -4 -10 -8 0 -5 -6 -9 -12 -9 -19 -1 -42 -7 -48 -14 -3 -3 -27
-13 -55 -23 -27 -10 -84 -33 -125 -51 -90 -39 -111 -47 -128 -51 -7 -1 -24
-10 -38 -19 -13 -9 -29 -13 -34 -10 -6 3 -10 1 -10 -4 0 -6 -3 -10 -7 -9 -5 1
-17 -3 -29 -9 -12 -7 -45 -22 -75 -33 -54 -22 -87 -35 -144 -60 -16 -8 -32
-14 -35 -15 -3 -1 -23 -10 -45 -19 -129 -57 -172 -75 -185 -78 -8 -2 -18 -7
-21 -11 -3 -5 -12 -10 -20 -12 -34 -8 -65 -20 -108 -41 -25 -13 -50 -24 -55
-24 -18 0 -142 -62 -163 -82 -12 -11 -28 -18 -36 -15 -8 3 -27 -1 -43 -10 -16
-8 -51 -24 -79 -34 -47 -19 -90 -38 -240 -110 -33 -16 -64 -29 -69 -29 -26 0
-245 -117 -272 -145 l-31 -32 63 -23 c57 -20 84 -40 53 -40 -5 0 -8 -4 -5 -8
3 -5 -28 -2 -70 6 -41 8 -76 13 -79 11 -9 -9 -18 -76 -16 -119 1 -40 12 -86
28 -130 3 -8 7 -20 8 -26 13 -59 109 -332 121 -340 8 -6 13 -22 12 -35 -1 -13
20 -95 47 -182 42 -139 49 -155 59 -135 14 27 35 30 50 6 15 -24 -4 -53 -33
-52 -11 0 -21 -3 -21 -8 0 -4 4 -8 8 -8 4 0 9 -11 10 -24 2 -26 82 -268 91
-276 3 -3 7 -14 8 -25 5 -43 9 -60 17 -73 5 -8 14 -35 21 -60 7 -26 19 -63 26
-82 20 -58 22 -64 26 -90 2 -13 8 -27 12 -30 5 -3 7 -13 5 -22 -1 -10 2 -20 7
-24 5 -3 9 -16 9 -29 0 -13 5 -27 11 -30 6 -4 8 -13 5 -21 -3 -7 -1 -16 5 -19
5 -4 7 -10 4 -15 -3 -5 -1 -11 5 -15 5 -3 10 -16 10 -29 0 -12 3 -26 8 -30 4
-4 7 -11 7 -14 1 -4 9 -31 19 -59 9 -29 15 -57 11 -63 -3 -5 -2 -10 3 -10 12
0 35 -77 27 -90 -3 -6 -1 -10 4 -10 6 0 11 -4 11 -9 0 -5 5 -22 12 -38 6 -15
12 -35 14 -44 2 -8 10 -29 19 -45 8 -17 11 -30 5 -32 -5 -2 -3 -11 6 -19 13
-13 13 -17 2 -24 -11 -7 -11 -9 0 -9 7 0 10 -4 7 -10 -3 -5 -1 -10 5 -10 6 0
8 -4 5 -10 -3 -5 -1 -10 5 -10 7 0 9 -7 6 -16 -5 -14 -4 -15 8 -5 7 6 20 9 29
5 29 -11 37 -95 12 -128 -13 -17 -13 -23 1 -44 11 -17 12 -22 3 -16 -11 6 -10
3 1 -10 14 -17 18 -30 23 -71 1 -11 5 -23 10 -26 4 -3 9 -20 10 -37 1 -19 8
-32 15 -32 7 0 11 -4 7 -9 -3 -5 -1 -12 5 -16 6 -4 8 -10 5 -15 -3 -5 -1 -11
5 -15 6 -4 8 -10 5 -15 -3 -5 -1 -11 4 -15 6 -3 8 -12 5 -20 -3 -8 1 -24 10
-37 18 -25 21 -42 7 -34 -5 4 -7 -3 -4 -14 3 -10 10 -18 17 -17 6 1 10 -4 8
-12 -2 -8 4 -32 13 -53 8 -22 13 -44 10 -49 -4 -5 -1 -9 6 -9 7 0 9 -3 6 -7
-4 -3 -2 -12 4 -20 6 -7 8 -13 4 -13 -4 0 -2 -6 4 -13 6 -8 13 -27 15 -43 2
-16 11 -46 20 -67 9 -21 14 -42 11 -48 -4 -5 -1 -8 6 -7 7 2 12 -9 13 -28 1
-18 9 -41 19 -52 11 -12 16 -29 13 -46 -3 -14 0 -26 6 -26 5 0 8 -7 4 -15 -3
-8 -2 -15 2 -15 4 0 14 -21 21 -47 8 -27 19 -59 24 -73 6 -14 11 -31 13 -39 1
-8 6 -17 11 -20 4 -3 9 -13 9 -21 3 -28 46 -175 66 -225 12 -27 21 -60 22 -72
1 -11 5 -19 10 -15 5 3 6 -2 3 -12 -4 -10 -1 -19 8 -22 8 -4 12 -10 10 -15 -3
-5 1 -23 10 -40 10 -18 12 -28 5 -24 -8 5 -8 0 1 -16 7 -13 12 -30 11 -36 -2
-7 2 -13 8 -13 6 0 8 -5 5 -10 -4 -6 1 -22 10 -36 9 -14 18 -35 19 -47 6 -41
19 -82 29 -88 5 -4 10 -20 11 -37 0 -17 4 -28 9 -25 6 3 8 -5 7 -32 0 -3 7
-19 15 -35 9 -17 13 -30 9 -30 -4 0 -1 -6 5 -14 6 -8 11 -18 10 -22 -3 -13 13
-48 25 -56 7 -5 7 -8 -2 -8 -9 0 -10 -5 -2 -19 7 -14 6 -21 -3 -24 -6 -3 -4
-6 7 -6 15 -1 16 -4 6 -16 -9 -11 -9 -15 -1 -15 7 0 9 -4 6 -10 -3 -5 -1 -10
6 -10 7 0 10 -3 6 -6 -3 -3 5 -37 19 -75 14 -38 22 -74 18 -81 -4 -7 -3 -8 4
-4 14 8 27 -36 18 -59 -3 -9 -2 -14 3 -10 5 3 14 -18 20 -47 7 -28 16 -57 21
-63 5 -6 11 -20 13 -31 1 -10 5 -23 8 -29 4 -5 9 -22 13 -37 3 -16 11 -28 17
-28 6 0 7 -4 4 -10 -3 -5 -1 -18 4 -28 5 -10 12 -32 15 -48 2 -16 5 -29 6 -29
3 0 12 -39 13 -57 1 -9 5 -14 9 -12 4 3 8 -4 8 -15 0 -11 9 -37 20 -56 11 -20
18 -40 15 -46 -4 -5 -1 -9 5 -9 6 0 8 -4 5 -10 -3 -5 -2 -10 3 -10 6 0 13 -16
17 -36 3 -20 10 -44 15 -53 8 -15 22 -51 24 -61 1 -3 5 -11 9 -18 5 -7 11 -24
13 -39 3 -15 8 -31 12 -37 4 -6 7 -19 8 -28 1 -10 2 -20 3 -22 1 -5 201 81
367 157 144 67 147 67 152 43 3 -14 0 -17 -13 -13 -9 4 -14 3 -11 -1 3 -5
-102 -62 -233 -127 l-238 -118 24 -76 c13 -42 26 -83 28 -91 13 -58 19 -76 25
-85 3 -5 7 -26 9 -45 1 -19 8 -47 16 -62 10 -20 10 -28 2 -28 -7 0 -6 -4 3
-10 8 -5 11 -10 6 -10 -5 0 -4 -6 1 -12 6 -7 13 -26 17 -41 4 -15 11 -25 16
-22 6 3 10 -1 10 -9 0 -9 4 -16 9 -16 5 0 7 -9 4 -20 -3 -13 1 -22 12 -26 9
-4 21 -17 26 -30 4 -13 13 -24 19 -24 6 0 8 6 4 12 -5 9 -3 9 9 -1 9 -7 15
-17 12 -21 -3 -4 2 -11 10 -14 8 -3 14 -11 13 -18 -3 -11 1 -13 33 -17 8 -1 7
-7 -2 -18 -13 -15 -12 -15 8 -4 26 14 30 31 7 31 -8 0 -12 5 -9 11 5 7 13 5
25 -6 20 -18 17 -20 270 102 91 44 198 94 238 113 l73 34 -3 72 c-3 63 -1 74
14 78 22 5 22 4 38 -61 6 -29 15 -53 19 -53 6 0 435 202 1041 490 80 38 530
252 1000 474 470 223 856 410 856 416 1 5 2 13 3 16 0 4 9 0 18 -7 11 -10 14
-10 9 -1 -5 8 0 12 14 12 11 0 116 46 233 101 116 56 325 154 462 219 138 65
309 146 380 180 72 34 164 78 205 97 41 20 212 101 380 181 408 194 486 230
685 324 94 44 181 86 195 93 14 8 95 46 180 86 216 100 282 131 730 344 217
103 422 200 455 215 33 15 132 62 220 105 88 42 185 89 215 102 63 29 72 22
-82 68 -59 17 -91 32 -98 45 -11 21 -8 23 25 21 18 -2 154 -34 198 -47 10 -3
-11 32 -53 87 -68 89 -70 93 -53 111 18 20 19 19 55 -23 34 -40 74 -62 65 -36
-2 7 -11 11 -20 9 -8 -1 -19 3 -23 9 -5 8 -3 9 6 4 7 -4 16 -2 21 6 4 7 4 16
-1 19 -5 3 1 12 13 19 20 13 21 13 9 -1 -10 -13 -10 -17 0 -20 17 -7 38 1 38
13 0 6 -6 7 -12 3 -10 -6 -10 -4 -2 7 14 18 22 119 29 379 3 113 10 345 16
515 6 171 12 726 14 1235 2 509 6 968 9 1020 3 52 8 201 11 330 7 291 15 534
30 890 3 63 7 171 10 240 11 296 17 417 20 447 2 22 0 30 -9 27 -9 -3 -11 6
-8 33 3 21 8 40 12 43 5 3 13 97 19 210 20 369 22 405 26 420 2 8 7 71 10 140
3 69 8 145 11 169 6 48 11 46 -62 25 -16 -4 -23 0 -26 14 -5 16 4 24 44 43 30
14 50 31 53 43 6 26 25 572 25 713 0 81 -3 105 -16 118 -9 9 -23 14 -30 11 -8
-3 -11 0 -8 9 3 7 -3 16 -15 20 -12 3 -21 11 -21 16 0 6 -4 8 -9 5 -5 -4 -11
-1 -13 6 -2 6 -11 12 -20 14 -8 1 -153 -57 -321 -129z m326 108 c-3 -9 -8 -14
-10 -11 -3 3 -2 9 2 15 9 16 15 13 8 -4z m-1521 -790 c0 -8 1 -20 2 -27 2 -17
-41 -20 -48 -3 -8 23 4 45 25 45 10 0 20 -7 21 -15z m-32 -1511 c0 -26 -17
-33 -26 -9 -8 20 3 48 16 40 5 -3 10 -17 10 -31z m-2301 -105 c39 -50 71 -94
71 -98 0 -12 -42 -33 -50 -24 -4 4 -37 47 -73 94 -62 80 -65 87 -49 102 9 9
20 17 24 17 3 0 39 -41 77 -91z m285 -371 c36 -48 66 -92 66 -97 0 -6 -9 -15
-19 -21 -17 -9 -28 1 -90 81 -39 50 -71 95 -71 100 0 9 32 29 41 26 4 -1 36
-41 73 -89z m241 27 c0 -48 -24 -56 -36 -12 -10 36 -1 59 20 55 12 -2 16 -14
16 -43z m2476 -97 c12 -48 4 -71 -28 -76 -15 -2 -24 5 -32 29 -12 36 -14 72
-4 82 3 4 17 7 29 7 19 0 25 -8 35 -42z m-2432 -300 c66 -87 69 -94 54 -110
-9 -10 -20 -17 -24 -16 -4 2 -39 45 -79 96 -67 88 -71 94 -53 107 10 8 21 15
24 15 4 0 39 -42 78 -92z m285 -369 c68 -91 69 -91 49 -111 -20 -20 -20 -20
-85 64 -35 45 -67 89 -72 96 -9 14 10 42 28 42 6 -1 42 -42 80 -91z m-4294
-78 c-14 -34 -34 -40 -44 -15 -8 20 2 56 18 66 6 4 17 1 25 -7 12 -11 12 -19
1 -44z m3718 -169 c13 -8 33 -33 45 -56 18 -35 21 -57 21 -146 0 -92 -5 -117
-33 -200 -18 -52 -66 -159 -107 -238 -41 -79 -74 -152 -74 -163 0 -31 32 -23
146 37 107 56 146 64 152 31 10 -54 -1 -62 -228 -177 -120 -60 -230 -110 -243
-110 -25 0 -37 16 -37 49 0 10 26 58 58 107 227 347 312 598 246 726 -30 59
-101 57 -170 -5 -47 -40 -71 -91 -84 -173 -8 -53 -16 -74 -36 -92 -21 -18 -29
-20 -46 -11 -18 10 -20 18 -15 78 13 177 141 338 286 360 55 8 88 3 119 -17z
m-568 -47 c0 -14 -13 -73 -30 -132 -48 -176 -277 -1021 -301 -1112 -37 -140
-68 -148 -149 -39 -56 75 -81 93 -109 79 -32 -17 -61 -14 -61 8 0 20 38 82 78
124 39 42 65 36 112 -27 82 -108 92 -98 160 159 12 44 44 163 71 265 28 102
64 235 80 295 84 317 99 369 114 391 19 29 35 23 35 -11z m1429 -77 c66 -85
70 -94 54 -105 -9 -7 -22 -12 -28 -10 -5 2 -41 43 -78 91 -55 71 -66 90 -56
102 6 8 17 14 24 14 7 0 45 -42 84 -92z m289 -376 c52 -68 61 -86 52 -97 -7
-8 -18 -15 -24 -15 -7 0 -44 42 -84 94 l-71 94 22 15 c17 12 24 13 32 3 6 -6
38 -49 73 -94z m-7638 -155 c0 -8 -6 -14 -14 -14 -8 0 -12 6 -9 14 3 7 9 13
14 13 5 0 9 -6 9 -13z m5040 -66 c14 -9 35 -37 48 -62 32 -60 27 -163 -11
-242 -15 -30 -27 -59 -27 -65 0 -6 20 -25 45 -42 72 -49 80 -69 80 -185 0 -90
-3 -106 -29 -160 -59 -120 -205 -230 -322 -242 -66 -7 -94 0 -134 34 -77 65
-85 213 -19 345 16 31 29 63 29 69 0 6 -20 30 -44 53 -35 32 -46 52 -55 93
-29 141 58 302 209 382 99 53 176 60 230 22z m2964 -36 c8 -22 -11 -65 -29
-65 -17 0 -19 18 -5 54 11 29 25 34 34 11z m-88 -102 c50 -65 64 -90 57 -102
-19 -30 -33 -21 -103 70 -67 87 -70 93 -54 110 9 10 20 16 25 14 4 -3 38 -44
75 -92z m191 27 c18 -35 16 -89 -2 -97 -23 -8 -54 24 -61 63 -11 61 37 86 63
34z m-7860 -65 c-4 -8 -1 -17 5 -21 6 -4 8 -3 4 4 -3 6 -2 13 4 17 11 7 125
-24 1525 -411 1131 -313 3496 -970 3670 -1019 66 -18 437 -122 825 -230 388
-108 716 -200 730 -206 33 -13 35 -47 3 -41 -13 2 -20 9 -16 15 3 6 1 7 -6 3
-6 -4 -109 20 -229 53 -119 33 -480 132 -802 221 -810 223 -2785 771 -3610
1000 -1499 417 -2056 573 -2065 578 -10 7 -16 8 -48 10 -15 2 -15 5 -5 22 15
23 23 26 15 5z m4187 -147 c10 -70 76 -657 83 -734 5 -64 3 -74 -16 -93 -22
-22 -47 -27 -69 -12 -15 9 -20 43 -63 421 -17 151 -36 281 -41 288 -6 6 -30
12 -54 12 -49 0 -69 22 -58 65 7 30 34 49 118 87 73 32 91 26 100 -34z m3765
-184 c40 -52 71 -96 69 -97 -1 -2 -11 -9 -21 -16 -19 -15 -13 -21 -114 110
-47 61 -50 68 -35 83 9 9 19 16 22 16 3 0 39 -43 79 -96z m1661 51 c12 -15 5
-55 -10 -55 -14 0 -31 37 -24 54 8 20 18 20 34 1z m-1437 -227 c-2 -5 3 -8 11
-8 21 0 20 -14 -1 -31 -14 -12 -16 -12 -8 0 5 8 4 12 -1 8 -24 -14 -54 39 -31
55 11 7 37 -13 30 -24z m-10 -52 c9 -7 17 -19 17 -25 0 -7 5 -9 11 -5 8 5 8 1
0 -14 -8 -16 -7 -23 7 -33 16 -13 16 -12 2 6 -14 19 -14 19 3 6 12 -9 14 -18
8 -24 -6 -6 8 -32 40 -75 27 -36 49 -68 49 -71 0 -3 -9 -12 -19 -18 -17 -11
-26 -3 -83 70 -85 109 -83 105 -61 129 10 12 12 18 6 14 -9 -5 -13 2 -13 23 0
34 6 37 33 17z m-503 -136 c0 -5 -5 -10 -11 -10 -5 0 -7 5 -4 10 3 6 8 10 11
10 2 0 4 -4 4 -10z m2090 -91 c0 -5 -4 -9 -8 -9 -5 0 -9 7 -9 15 0 8 4 12 9 9
4 -3 8 -9 8 -15z m-1231 -286 c70 -91 71 -92 50 -107 -21 -14 -24 -11 -94 77
-67 85 -71 93 -57 110 9 10 19 16 23 15 4 -2 39 -44 78 -95z m177 -238 c1 -8
-2 -13 -7 -9 -5 3 -9 12 -9 21 0 19 13 9 16 -12z m34 11 c0 -3 -4 -8 -10 -11
-5 -3 -10 -1 -10 4 0 6 5 11 10 11 6 0 10 -2 10 -4z m66 -131 c78 -104 77
-100 55 -119 -19 -17 -22 -14 -90 76 -66 88 -70 96 -59 120 14 30 10 33 94
-77z m289 -375 c65 -86 67 -92 51 -108 -17 -16 -19 -15 -47 18 -16 19 -39 35
-51 35 -17 0 -22 7 -24 32 -1 18 -12 45 -24 60 -20 26 -20 28 -4 40 10 7 21
13 24 13 3 0 37 -41 75 -90z m-2250 -88 c-3 -3 -11 0 -18 7 -9 10 -8 11 6 5
10 -3 15 -9 12 -12z m5 -21 c0 -5 -9 -7 -20 -4 -11 3 -20 7 -20 9 0 2 9 4 20
4 11 0 20 -4 20 -9z m414 -107 c3 -8 2 -12 -4 -9 -6 3 -10 10 -10 16 0 14 7
11 14 -7z m2117 -156 c65 -85 69 -93 53 -105 -10 -7 -21 -13 -25 -13 -4 0 -37
41 -74 90 -55 74 -65 93 -55 105 7 8 16 15 21 15 5 0 40 -41 80 -92z m279
-256 c0 -5 -7 -9 -15 -9 -8 0 -12 4 -9 9 3 4 9 8 15 8 5 0 9 -4 9 -8z m-7880
-74 c0 -12 -56 -126 -125 -254 -69 -127 -125 -243 -125 -257 0 -13 6 -29 13
-35 7 -6 85 -47 174 -91 199 -98 206 -109 102 -161 -32 -17 -71 -30 -86 -30
-15 0 -84 27 -154 60 -136 64 -166 71 -193 41 -10 -11 -58 -99 -107 -198 -50
-98 -99 -187 -110 -199 -22 -24 -120 -74 -143 -74 -20 0 -21 33 -2 63 7 12 46
85 86 162 40 77 93 177 117 223 23 46 43 89 43 96 0 25 -48 56 -191 125 -158
75 -180 91 -158 117 18 22 124 74 151 74 13 0 85 -30 160 -66 132 -64 139 -66
162 -51 15 10 62 89 120 201 98 188 132 232 200 262 46 20 66 18 66 -8z
m-1046 -744 c5 -14 -9 -54 -19 -54 -2 0 -9 9 -15 19 -12 23 -4 51 15 51 7 0
16 -7 19 -16z m4923 -500 c3 -8 -2 -23 -11 -32 -14 -15 -18 -15 -31 -1 -9 9
-13 23 -9 32 8 21 43 22 51 1z m-4238 -28 c19 -22 25 -84 11 -101 -30 -36 -70
0 -70 63 0 46 35 67 59 38z m-479 -597 c0 -16 -5 -29 -10 -29 -15 0 -34 46
-26 65 10 26 36 -1 36 -36z m3636 -673 c7 -19 -13 -56 -31 -56 -18 0 -19 9 -5
44 10 29 28 34 36 12z m-3335 -23 c13 -36 8 -58 -15 -58 -23 0 -36 32 -25 63
11 30 27 28 40 -5z m1978 -141 c12 -23 4 -59 -15 -66 -16 -6 -44 19 -44 39 0
44 40 62 59 27z m-1135 -704 c7 -12 6 -21 -4 -33 -12 -14 -15 -14 -28 -2 -9 9
-11 23 -7 36 7 24 23 24 39 -1z m417 -148 c8 12 10 12 7 -5 -5 -30 -38 -32
-38 -3 0 19 2 20 10 8 9 -13 11 -13 21 0z"/>
<path d="M5875 12256 c-59 -27 -118 -88 -135 -141 -18 -54 -8 -130 20 -160 61
-65 219 8 267 122 16 39 17 116 2 146 -17 32 -50 57 -79 57 -14 0 -47 -11 -75
-24z"/>
<path d="M5924 11861 c-102 -46 -164 -136 -164 -237 0 -98 51 -154 124 -138
93 20 181 97 210 182 53 154 -36 254 -170 193z"/>
<path d="M9428 11613 c7 -3 16 -2 19 1 4 3 -2 6 -13 5 -11 0 -14 -3 -6 -6z"/>
<path d="M3 11935 c0 -742 3 -1325 7 -1295 4 30 7 49 8 42 1 -7 6 -10 12 -7 5
3 10 -1 10 -9 0 -9 5 -16 12 -16 6 0 8 -3 5 -6 -6 -7 16 -55 40 -84 6 -8 12
-19 13 -25 5 -23 20 -54 29 -60 6 -3 11 -15 11 -26 0 -11 6 -22 14 -25 8 -3
13 -14 11 -25 -2 -11 0 -17 6 -14 5 4 9 -1 9 -9 0 -15 57 -106 66 -106 3 0 4
15 2 32 -5 57 54 48 65 -9 11 -57 -27 -93 -62 -60 -7 6 -3 -4 10 -25 13 -20
26 -35 29 -33 3 2 7 -5 8 -16 1 -10 3 -28 4 -39 1 -11 7 -19 14 -16 7 3 10 -5
8 -20 -1 -13 2 -22 7 -18 5 3 9 0 9 -6 0 -6 4 -9 9 -6 10 6 21 -16 21 -41 0
-19 67 -154 83 -168 7 -6 13 -17 15 -25 2 -8 9 -19 16 -25 7 -5 11 -15 9 -22
-3 -7 5 -22 16 -35 12 -12 21 -26 21 -32 0 -5 -6 -1 -14 10 -8 10 -18 16 -22
11 -4 -4 -2 -7 4 -7 7 0 12 -7 12 -15 0 -8 6 -15 14 -15 10 0 13 -7 11 -21 -3
-16 -1 -18 9 -10 9 8 13 7 13 -4 0 -8 -4 -15 -8 -15 -12 0 -5 -25 15 -51 17
-24 17 -24 1 6 l-16 30 22 -25 c12 -14 26 -24 32 -22 6 2 4 -4 -3 -13 -11 -13
-9 -24 10 -65 13 -27 27 -47 31 -44 4 2 11 -1 15 -7 4 -8 3 -9 -4 -5 -14 9
-16 -6 -3 -19 5 -6 27 -42 48 -80 101 -187 198 -353 204 -349 4 2 6 -2 5 -9
-2 -22 1217 -2177 1231 -2177 8 0 11 4 8 10 -3 6 1 10 9 10 9 0 16 5 16 11 0
5 -5 7 -12 3 -8 -5 -9 -2 -5 9 8 22 3 21 -19 0 -16 -16 -17 -16 -12 -1 4 9 4
19 0 21 -4 2 -2 2 5 1 13 -3 43 22 43 36 0 5 -6 7 -14 4 -22 -8 -28 12 -8 27
15 13 16 12 3 -3 -15 -21 -2 -24 18 -5 11 10 13 10 7 0 -4 -7 -2 -13 4 -13 6
0 8 -5 4 -12 -4 -7 -3 -8 5 -4 6 4 19 2 28 -6 15 -12 15 -11 5 8 -9 17 -9 24
3 34 12 10 15 10 15 -2 0 -7 9 -14 20 -15 11 -1 18 2 15 7 -3 4 -1 10 5 12 11
3 -1277 3891 -1291 3896 -5 2 -9 13 -9 24 0 22 -142 464 -165 514 -8 17 -17
42 -19 55 -3 13 -5 24 -6 24 -1 0 -3 8 -5 18 -2 10 -12 28 -22 40 -10 11 -12
17 -5 13 17 -10 18 -12 -23 89 -5 11 -9 23 -9 27 -1 3 -4 9 -8 13 -4 4 -4 13
-1 21 3 8 1 14 -5 14 -5 0 -13 7 -16 16 -4 10 -2 13 6 8 13 -8 3 12 -20 39 -8
9 -12 17 -7 17 4 0 2 7 -5 15 -7 8 -9 15 -5 15 4 0 2 7 -5 15 -9 11 -9 15 -1
15 7 0 9 5 6 10 -4 6 -11 8 -16 5 -5 -3 -6 1 -3 9 4 10 1 16 -7 16 -7 0 -9 3
-6 7 4 3 2 12 -4 19 -6 8 -9 21 -5 29 3 9 2 13 -4 10 -6 -3 -10 -3 -11 2 -4
40 -12 69 -21 74 -6 4 -12 19 -14 35 -2 15 -9 31 -16 35 -7 4 -9 11 -6 15 4 4
2 16 -4 28 -7 11 -11 24 -10 29 1 4 -2 7 -7 7 -5 0 -12 13 -16 29 -3 16 -13
32 -21 35 -8 3 -14 15 -14 27 0 12 -11 42 -25 66 -14 23 -23 43 -20 43 3 0 -1
10 -9 22 -9 12 -16 31 -16 41 0 9 -7 20 -15 23 -8 4 -15 13 -15 20 0 8 -7 26
-16 39 -9 14 -12 25 -8 25 5 0 5 4 -1 8 -8 6 -46 76 -50 92 0 3 -8 19 -18 36
-9 17 -13 35 -9 39 4 5 2 5 -5 1 -14 -7 -46 51 -36 67 3 5 2 7 -4 4 -5 -3 -16
9 -23 28 -7 19 -17 32 -20 30 -4 -3 -15 14 -24 38 -9 23 -29 62 -45 86 -17 25
-27 49 -24 54 3 6 1 7 -5 3 -8 -5 -12 2 -12 21 0 22 -2 25 -10 13 -8 -13 -10
-12 -10 3 0 9 -4 17 -9 17 -5 0 -12 12 -16 28 -3 15 -13 41 -20 57 -8 17 -16
53 -18 80 -2 28 -3 -557 -4 -1300z m1132 -1675 c3 -6 3 -20 -1 -32 -6 -21 -7
-21 -20 -3 -8 10 -14 25 -14 32 0 15 26 18 35 3z m-36 -64 c14 -16 5 -42 -16
-50 -9 -4 -17 1 -20 14 -3 11 -9 20 -14 20 -5 0 -6 7 -3 15 8 19 38 19 53 1z
m1176 -3244 c-3 -3 -11 0 -18 7 -9 10 -8 11 6 5 10 -3 15 -9 12 -12z"/>
<path d="M10950 9702 c0 -6 5 -14 10 -17 6 -3 10 -15 10 -26 0 -10 5 -19 10
-19 6 0 10 -5 10 -11 0 -5 -4 -8 -9 -4 -19 11 -20 -13 -1 -30 20 -18 20 -17
20 48 0 38 -4 67 -10 67 -5 0 -10 -5 -10 -11 0 -8 -5 -8 -15 1 -9 8 -15 9 -15
2z"/>
<path d="M10985 9539 c-4 -6 -5 -12 -2 -15 2 -3 7 2 10 11 7 17 1 20 -8 4z"/>
<path d="M2146 6788 c3 -5 10 -6 15 -3 13 9 11 12 -6 12 -8 0 -12 -4 -9 -9z"/>
<path d="M2160 6761 c0 -5 5 -13 10 -16 6 -3 10 -2 10 4 0 5 -4 13 -10 16 -5
3 -10 2 -10 -4z"/>
<path d="M2586 6022 c-3 -5 6 -26 19 -48 14 -21 25 -34 25 -27 0 6 -5 15 -10
18 -6 4 -8 10 -5 15 3 4 -2 13 -10 20 -8 7 -12 16 -9 21 3 5 3 9 0 9 -3 0 -7
-4 -10 -8z"/>
<path d="M2897 5666 c-4 -10 -1 -13 8 -9 8 3 12 9 9 14 -7 12 -11 11 -17 -5z"/>
<path d="M2817 5654 c-3 -3 -3 -12 -1 -19 5 -13 44 -9 44 5 0 5 -10 6 -22 2
-14 -3 -19 -2 -14 6 8 13 3 16 -7 6z"/>
</g>
</svg>
